<svg id="svg" version="1.1" xmlns="http://www.w3.org/2000/svg" xmlns:xlink="http://www.w3.org/1999/xlink" width="400" height="400" viewBox="0, 0, 400,400"><g id="svgg"><path id="path0" d="M103.800 19.023 C 102.920 19.335,101.722 19.862,101.138 20.195 C 100.554 20.528,99.794 20.800,99.448 20.800 C 98.663 20.800,97.451 23.433,96.778 26.600 C 96.497 27.920,96.138 29.180,95.979 29.400 C 95.567 29.972,95.209 32.397,94.845 37.107 C 94.463 42.035,94.496 41.992,92.262 40.484 C 91.281 39.822,89.831 39.046,89.039 38.760 C 88.248 38.474,87.600 38.100,87.600 37.931 C 87.600 37.761,86.565 37.326,85.300 36.963 C 84.035 36.600,82.809 36.152,82.576 35.966 C 82.343 35.781,80.363 35.333,78.176 34.971 C 75.989 34.609,73.840 34.161,73.400 33.976 C 69.292 32.248,33.486 32.282,32.395 34.015 C 32.282 34.194,31.490 34.399,30.635 34.470 C 29.602 34.557,28.933 34.862,28.641 35.383 C 28.398 35.814,27.975 36.412,27.700 36.712 C 27.425 37.012,27.200 37.489,27.200 37.773 C 27.200 38.056,26.741 38.964,26.181 39.790 C 25.090 41.398,24.349 43.926,25.106 43.458 C 25.362 43.300,25.962 44.089,26.581 45.396 C 27.154 46.608,27.762 47.600,27.931 47.600 C 28.101 47.600,28.466 48.228,28.744 48.996 C 29.022 49.763,29.463 50.622,29.724 50.903 C 29.986 51.184,30.551 52.041,30.980 52.807 C 31.409 53.573,32.084 54.549,32.480 54.975 C 32.876 55.402,33.200 55.927,33.200 56.142 C 33.200 56.357,33.471 56.818,33.803 57.166 C 34.134 57.515,35.120 58.790,35.994 60.000 C 36.867 61.210,37.991 62.681,38.491 63.270 C 42.128 67.551,43.393 68.942,46.410 71.973 C 51.849 77.439,59.197 83.588,60.300 83.596 C 60.575 83.598,60.800 83.772,60.800 83.981 C 60.800 84.191,61.430 84.661,62.200 85.027 C 62.970 85.392,63.600 85.831,63.600 86.002 C 63.600 86.173,64.320 86.601,65.200 86.953 C 67.151 87.734,67.150 87.718,65.315 88.853 C 64.498 89.358,63.519 90.047,63.140 90.385 C 62.761 90.723,62.034 91.309,61.525 91.686 C 60.217 92.655,53.960 97.680,53.165 98.400 C 52.800 98.730,51.105 100.260,49.397 101.800 C 45.477 105.334,41.339 109.470,38.000 113.191 C 36.570 114.784,34.725 116.832,33.900 117.742 C 33.075 118.651,32.400 119.523,32.400 119.680 C 32.400 119.836,31.995 120.396,31.500 120.925 C 31.005 121.453,30.240 122.373,29.800 122.968 C 29.360 123.564,28.710 124.375,28.355 124.770 C 28.001 125.166,27.371 126.099,26.955 126.845 C 26.540 127.590,25.885 128.435,25.500 128.723 C 25.115 129.010,24.800 129.434,24.800 129.665 C 24.800 129.896,24.395 130.588,23.900 131.203 C 23.405 131.819,22.460 133.255,21.800 134.395 C 21.140 135.534,20.419 136.677,20.197 136.933 C 19.976 137.190,19.436 138.163,18.997 139.095 C 18.559 140.028,18.083 140.793,17.940 140.795 C 17.797 140.798,17.357 141.700,16.961 142.800 C 16.566 143.900,16.116 144.800,15.961 144.800 C 15.807 144.800,15.357 145.700,14.961 146.800 C 14.566 147.900,14.103 148.800,13.932 148.800 C 13.762 148.800,13.335 149.790,12.983 151.000 C 12.631 152.210,12.200 153.200,12.024 153.200 C 11.849 153.200,11.404 154.274,11.036 155.587 C 10.667 156.900,10.103 158.475,9.783 159.087 C 9.462 159.699,8.984 161.235,8.720 162.500 C 8.456 163.765,8.118 164.800,7.970 164.800 C 7.821 164.800,7.379 166.465,6.987 168.500 C 6.596 170.535,6.145 172.290,5.986 172.400 C 5.641 172.638,4.400 181.410,4.400 183.612 C 4.400 184.459,4.220 185.264,4.000 185.400 C 3.750 185.554,3.600 189.463,3.600 195.800 C 3.600 202.137,3.750 206.046,4.000 206.200 C 4.220 206.336,4.400 207.147,4.400 208.003 C 4.400 210.289,5.578 218.887,5.959 219.378 C 6.139 219.610,6.610 221.555,7.006 223.700 C 7.402 225.845,7.844 227.600,7.989 227.600 C 8.135 227.600,8.482 228.750,8.761 230.156 C 9.041 231.562,9.508 233.173,9.800 233.736 C 10.092 234.299,10.635 235.803,11.005 237.080 C 11.376 238.356,11.805 239.490,11.959 239.600 C 12.113 239.710,12.573 240.925,12.983 242.300 C 13.392 243.675,13.864 244.800,14.031 244.800 C 14.199 244.800,14.647 245.745,15.027 246.900 C 15.407 248.055,15.843 249.090,15.996 249.200 C 16.148 249.310,16.596 250.255,16.991 251.300 C 17.386 252.345,17.829 253.200,17.975 253.200 C 18.122 253.200,18.566 254.100,18.961 255.200 C 19.357 256.300,19.797 257.201,19.940 257.201 C 20.083 257.202,20.533 258.012,20.940 259.001 C 21.346 259.991,21.814 260.800,21.979 260.800 C 22.144 260.800,22.613 261.610,23.022 262.600 C 23.430 263.590,23.880 264.400,24.021 264.400 C 24.163 264.400,24.603 265.120,25.000 266.000 C 25.397 266.880,25.847 267.600,26.000 267.600 C 26.153 267.600,26.603 268.320,27.000 269.200 C 27.397 270.080,27.852 270.800,28.012 270.800 C 28.172 270.800,28.528 271.344,28.804 272.009 C 29.079 272.675,29.508 273.350,29.756 273.509 C 30.005 273.669,30.562 274.475,30.995 275.300 C 31.428 276.125,31.909 276.800,32.064 276.800 C 32.219 276.800,32.447 277.115,32.571 277.500 C 32.695 277.885,33.337 278.830,33.997 279.600 C 34.658 280.370,35.199 281.122,35.199 281.271 C 35.200 281.421,35.425 281.781,35.700 282.071 C 35.975 282.362,37.010 283.676,38.000 284.991 C 40.154 287.852,40.260 287.988,42.579 290.840 C 44.357 293.028,44.781 294.252,44.027 295.020 C 43.822 295.229,43.329 297.020,42.932 299.000 C 42.536 300.980,42.084 302.694,41.930 302.809 C 40.696 303.724,40.750 324.015,41.993 326.334 C 42.189 326.700,42.658 328.395,43.034 330.100 C 43.411 331.805,43.833 333.200,43.972 333.200 C 44.112 333.200,44.474 334.055,44.777 335.100 C 45.262 336.769,47.371 341.049,47.980 341.600 C 48.102 341.710,48.466 342.340,48.789 343.000 C 49.688 344.834,52.920 348.365,55.562 350.400 C 56.276 350.950,57.342 351.805,57.930 352.300 C 58.519 352.794,59.122 353.199,59.271 353.200 C 59.421 353.200,59.790 353.447,60.091 353.748 C 60.392 354.050,61.260 354.615,62.020 355.004 C 62.779 355.393,63.490 355.845,63.600 356.009 C 63.796 356.299,64.651 356.773,68.634 358.800 C 69.716 359.350,70.801 359.988,71.047 360.219 C 71.293 360.449,72.238 360.883,73.147 361.183 C 74.056 361.483,74.800 361.865,74.800 362.032 C 74.800 362.199,75.745 362.647,76.900 363.027 C 78.055 363.407,79.090 363.850,79.200 364.012 C 79.310 364.174,80.296 364.609,81.390 364.979 C 82.485 365.349,83.565 365.796,83.790 365.973 C 84.016 366.150,85.190 366.615,86.400 367.006 C 87.610 367.398,88.690 367.835,88.800 367.978 C 88.910 368.121,90.170 368.583,91.600 369.005 C 93.030 369.426,94.650 370.002,95.200 370.285 C 95.750 370.569,97.235 371.016,98.500 371.280 C 99.765 371.544,100.800 371.877,100.800 372.020 C 100.800 372.163,102.195 372.603,103.900 372.997 C 105.605 373.390,107.180 373.850,107.400 374.018 C 107.620 374.187,109.420 374.641,111.400 375.029 C 113.380 375.416,115.090 375.865,115.200 376.027 C 115.310 376.189,117.380 376.650,119.800 377.051 C 122.220 377.452,124.293 377.907,124.406 378.061 C 124.519 378.215,127.219 378.664,130.406 379.057 C 133.593 379.451,136.290 379.892,136.400 380.038 C 136.665 380.387,150.607 381.609,154.276 381.604 C 155.858 381.602,157.264 381.780,157.400 382.000 C 157.705 382.493,177.858 382.554,178.161 382.063 C 178.276 381.877,180.714 381.613,183.578 381.476 C 190.324 381.153,197.584 380.440,198.600 380.001 C 199.040 379.810,201.560 379.357,204.200 378.993 C 206.840 378.629,209.180 378.191,209.400 378.019 C 209.620 377.847,211.600 377.392,213.800 377.006 C 216.000 376.621,217.980 376.167,218.200 375.997 C 218.420 375.826,220.040 375.372,221.800 374.987 C 223.560 374.601,225.090 374.166,225.200 374.018 C 225.310 373.871,226.660 373.418,228.200 373.012 C 229.740 372.605,231.090 372.155,231.200 372.012 C 231.310 371.868,232.615 371.427,234.100 371.031 C 235.585 370.635,236.800 370.191,236.800 370.044 C 236.800 369.897,237.880 369.457,239.200 369.065 C 240.520 368.673,241.600 368.206,241.600 368.026 C 241.600 367.847,242.116 367.597,242.747 367.471 C 243.378 367.344,245.260 366.602,246.929 365.821 C 248.598 365.039,250.151 364.400,250.382 364.400 C 250.612 364.400,250.800 364.238,250.800 364.040 C 250.800 363.842,251.700 363.357,252.800 362.961 C 253.900 362.566,254.800 362.122,254.800 361.975 C 254.800 361.829,255.650 361.384,256.688 360.987 C 257.727 360.591,258.762 360.110,258.988 359.920 C 259.709 359.313,264.084 356.800,264.420 356.800 C 264.598 356.800,264.990 356.553,265.291 356.252 C 265.592 355.950,266.443 355.391,267.182 355.009 C 267.921 354.627,268.722 354.153,268.962 353.956 C 270.110 353.015,273.625 350.800,273.970 350.800 C 274.185 350.800,274.504 350.556,274.680 350.258 C 274.856 349.961,275.450 349.486,276.000 349.203 C 276.550 348.920,277.270 348.443,277.600 348.142 C 277.930 347.841,279.190 346.879,280.400 346.005 C 288.010 340.507,300.637 329.358,301.296 327.556 C 301.451 327.134,302.245 326.818,303.601 326.638 C 304.739 326.487,305.969 326.203,306.335 326.007 C 306.701 325.811,308.710 325.344,310.800 324.969 C 312.890 324.595,314.780 324.162,315.000 324.006 C 315.220 323.851,316.930 323.405,318.800 323.015 C 320.670 322.625,322.380 322.167,322.600 321.997 C 322.820 321.828,324.350 321.367,326.000 320.975 C 327.650 320.583,329.090 320.147,329.200 320.006 C 329.310 319.866,330.660 319.418,332.200 319.012 C 333.740 318.605,335.090 318.155,335.200 318.011 C 335.310 317.868,336.480 317.419,337.800 317.015 C 339.120 316.611,340.555 316.038,340.989 315.740 C 341.423 315.443,342.036 315.200,342.350 315.200 C 342.665 315.200,344.020 314.684,345.361 314.054 C 346.703 313.423,348.205 312.781,348.700 312.627 C 349.195 312.472,349.600 312.178,349.600 311.973 C 349.600 311.768,349.833 311.600,350.118 311.600 C 350.655 311.600,357.247 308.445,357.600 308.019 C 357.710 307.886,358.565 307.441,359.500 307.028 C 360.435 306.616,361.202 306.171,361.205 306.039 C 361.207 305.908,361.927 305.456,362.805 305.036 C 363.682 304.615,364.400 304.141,364.400 303.981 C 364.400 303.822,365.030 303.392,365.800 303.027 C 366.570 302.661,367.200 302.191,367.200 301.981 C 367.200 301.772,367.399 301.600,367.643 301.600 C 368.038 301.600,370.124 300.084,373.292 297.493 C 377.631 293.945,385.600 285.245,385.600 284.056 C 385.600 283.805,385.775 283.600,385.990 283.600 C 386.204 283.600,386.679 283.015,387.046 282.300 C 387.412 281.585,387.842 280.910,388.001 280.800 C 388.482 280.468,391.600 274.374,391.600 273.766 C 391.600 273.455,391.760 273.200,391.956 273.200 C 392.151 273.200,392.635 271.985,393.031 270.500 C 393.427 269.015,393.880 267.710,394.039 267.599 C 394.415 267.336,395.600 261.584,395.600 260.017 C 395.600 259.348,395.780 258.800,396.000 258.800 C 396.512 258.800,396.544 244.263,396.034 243.295 C 395.833 242.913,395.459 241.070,395.202 239.200 C 394.945 237.330,394.491 235.260,394.194 234.600 C 393.897 233.940,393.348 232.275,392.974 230.900 C 392.600 229.525,392.174 228.400,392.026 228.400 C 391.879 228.400,391.434 227.500,391.039 226.400 C 390.643 225.300,390.177 224.400,390.003 224.400 C 389.829 224.400,389.578 223.965,389.444 223.433 C 388.888 221.218,385.340 218.400,383.106 218.400 C 382.366 218.400,381.521 218.175,381.230 217.900 C 380.806 217.500,380.663 217.500,380.517 217.900 C 380.416 218.175,379.763 218.400,379.067 218.400 C 377.511 218.399,371.076 219.636,370.800 219.988 C 370.690 220.129,369.070 220.566,367.200 220.960 C 365.330 221.354,363.620 221.814,363.400 221.982 C 363.180 222.150,361.560 222.616,359.800 223.017 C 358.040 223.418,356.510 223.868,356.400 224.016 C 356.290 224.165,354.760 224.601,353.000 224.987 C 351.240 225.372,349.620 225.828,349.400 225.999 C 349.180 226.171,347.650 226.633,346.000 227.025 C 344.350 227.417,342.910 227.850,342.800 227.986 C 342.690 228.122,341.160 228.562,339.400 228.965 C 337.640 229.368,336.020 229.831,335.800 229.994 C 335.580 230.157,334.050 230.610,332.400 231.000 C 330.750 231.390,329.220 231.842,329.000 232.003 C 328.780 232.165,327.160 232.610,325.400 232.992 C 323.640 233.374,322.018 233.834,321.797 234.012 C 321.472 234.274,316.443 235.600,315.775 235.600 C 315.357 235.600,315.648 231.712,316.100 231.260 C 316.827 230.533,316.827 190.668,316.100 189.940 C 315.825 189.665,315.600 188.715,315.600 187.830 C 315.600 185.235,314.321 173.419,314.017 173.200 C 313.864 173.090,313.425 170.753,313.041 168.006 C 312.657 165.259,312.203 162.919,312.031 162.806 C 311.859 162.693,311.405 160.845,311.022 158.700 C 310.639 156.555,310.196 154.800,310.036 154.800 C 309.877 154.800,309.511 153.585,309.223 152.100 C 308.935 150.615,308.382 148.680,307.995 147.800 C 307.607 146.920,307.163 145.570,307.006 144.800 C 306.850 144.030,306.495 143.040,306.218 142.600 C 305.941 142.160,305.400 140.720,305.017 139.400 C 304.634 138.080,304.185 136.910,304.019 136.800 C 303.854 136.690,303.407 135.655,303.027 134.500 C 302.647 133.345,302.170 132.400,301.968 132.400 C 301.766 132.400,301.600 132.119,301.600 131.776 C 301.600 131.007,297.010 121.658,296.113 120.600 C 295.927 120.380,295.439 119.480,295.029 118.600 C 294.620 117.720,294.041 116.856,293.742 116.680 C 293.444 116.504,293.200 116.185,293.200 115.970 C 293.200 115.526,290.719 111.722,289.805 110.766 C 289.472 110.418,289.200 110.003,289.200 109.845 C 289.200 109.687,288.210 108.317,287.000 106.800 C 285.790 105.283,284.800 103.941,284.800 103.816 C 284.800 103.170,276.182 94.121,271.361 89.705 C 269.622 88.112,267.743 86.357,267.185 85.805 C 266.627 85.252,266.017 84.800,265.831 84.800 C 265.644 84.800,265.080 84.395,264.577 83.900 C 263.159 82.506,252.738 75.200,252.168 75.200 C 252.045 75.200,251.159 74.660,250.200 74.000 C 249.241 73.340,248.276 72.800,248.057 72.800 C 247.837 72.800,247.419 72.575,247.129 72.300 C 246.392 71.603,238.124 67.426,236.300 66.829 C 235.475 66.559,234.800 66.200,234.800 66.032 C 234.800 65.864,233.711 65.397,232.381 64.994 C 231.050 64.591,229.874 64.121,229.768 63.948 C 229.661 63.775,228.500 63.333,227.187 62.964 C 225.874 62.596,224.800 62.174,224.800 62.027 C 224.800 61.880,223.450 61.424,221.800 61.013 C 220.150 60.602,218.800 60.142,218.800 59.991 C 218.800 59.840,217.361 59.405,215.603 59.025 C 213.845 58.645,212.319 58.192,212.211 58.018 C 212.104 57.845,210.347 57.384,208.308 56.995 C 206.269 56.607,204.420 56.156,204.200 55.994 C 203.980 55.833,201.730 55.391,199.200 55.013 C 196.670 54.635,194.240 54.169,193.800 53.977 C 192.907 53.587,182.896 52.400,180.499 52.400 C 179.653 52.400,178.752 52.192,178.497 51.937 C 178.165 51.605,173.991 51.463,163.736 51.437 L 149.439 51.400 147.836 49.600 C 145.429 46.897,137.941 39.610,136.800 38.861 C 136.250 38.500,135.472 37.798,135.071 37.302 C 134.670 36.806,134.183 36.400,133.989 36.400 C 133.795 36.400,133.133 35.937,132.518 35.372 C 130.855 33.844,130.422 33.514,127.800 31.784 C 126.480 30.913,125.256 29.975,125.080 29.700 C 124.904 29.425,124.533 29.200,124.256 29.200 C 123.978 29.200,123.402 28.876,122.975 28.480 C 122.549 28.084,121.570 27.409,120.800 26.980 C 120.030 26.551,119.256 25.975,119.080 25.700 C 118.904 25.425,118.577 25.200,118.352 25.200 C 118.128 25.200,117.192 24.685,116.272 24.055 C 115.352 23.425,114.195 22.783,113.700 22.628 C 113.205 22.473,112.800 22.206,112.800 22.034 C 112.800 21.862,112.035 21.384,111.100 20.972 C 110.165 20.559,109.310 20.107,109.200 19.967 C 108.146 18.621,105.995 18.246,103.800 19.023 M110.113 32.660 C 125.678 42.690,136.553 51.777,142.114 59.400 C 143.237 60.940,145.346 63.640,146.800 65.400 C 148.254 67.160,150.232 69.828,151.195 71.328 C 152.948 74.056,152.948 74.056,153.475 73.051 C 153.946 72.152,154.925 66.617,154.768 65.745 C 154.536 64.466,154.831 64.400,160.700 64.415 C 176.939 64.456,197.416 67.401,211.200 71.677 C 216.161 73.216,221.007 74.860,222.260 75.428 C 222.954 75.743,223.644 76.000,223.793 76.000 C 224.941 76.000,237.992 82.332,243.000 85.318 C 277.511 105.897,296.803 138.607,302.262 185.800 C 303.680 198.059,303.850 220.382,302.617 232.538 C 301.728 241.297,302.549 240.236,295.400 241.869 C 283.698 244.543,279.888 245.257,276.175 245.473 L 272.150 245.707 269.775 243.903 C 245.654 225.577,221.213 221.461,194.400 231.210 C 178.835 236.869,166.000 249.589,166.000 259.355 C 166.000 259.968,164.541 262.098,161.900 265.341 C 156.921 271.453,156.687 271.769,154.093 275.857 C 142.513 294.109,141.836 309.854,152.184 320.221 C 159.598 327.649,167.926 330.842,187.400 333.723 C 191.506 334.331,230.386 334.289,239.400 333.668 C 251.601 332.827,262.217 331.986,265.600 331.593 C 267.470 331.376,270.530 331.024,272.400 330.810 C 274.270 330.597,276.385 330.338,277.100 330.236 C 279.182 329.938,278.687 330.520,273.577 334.369 C 238.919 360.474,196.823 372.081,150.800 368.222 C 110.397 364.834,66.504 348.210,58.741 333.357 C 53.537 323.398,52.836 307.531,57.171 297.800 C 57.367 297.360,58.083 295.765,58.763 294.255 C 60.357 290.718,60.561 291.374,56.278 286.252 C 49.813 278.520,42.519 268.856,40.388 265.200 C 39.939 264.430,38.594 262.270,37.400 260.400 C 33.887 254.897,30.643 248.873,27.494 242.000 C 26.234 239.251,25.263 236.837,23.232 231.400 C 5.297 183.401,26.536 130.694,77.470 96.801 C 79.268 95.605,80.652 94.485,80.546 94.313 C 80.210 93.769,81.461 93.969,84.679 94.975 C 92.647 97.463,102.699 97.508,108.373 95.079 L 109.745 94.491 106.616 93.046 C 104.895 92.251,103.421 91.600,103.339 91.600 C 103.258 91.600,102.428 91.248,101.496 90.819 C 98.535 89.454,95.550 88.342,90.000 86.534 C 74.898 81.616,63.672 74.598,52.683 63.208 C 46.413 56.708,37.589 44.989,38.209 43.986 C 39.492 41.910,67.791 42.919,77.600 45.390 C 80.327 46.077,87.514 46.800,91.620 46.800 C 95.185 46.800,95.395 46.957,95.722 49.868 C 97.157 62.636,107.913 77.356,118.000 80.356 C 119.511 80.805,126.053 81.680,126.271 81.462 C 126.547 81.187,118.841 71.622,115.255 67.789 C 106.547 58.481,103.223 47.261,105.600 35.200 C 106.040 32.968,106.400 31.064,106.400 30.971 C 106.400 30.479,107.513 30.985,110.113 32.660 M258.294 132.420 C 245.766 135.496,238.982 155.297,242.754 177.778 C 243.636 183.034,244.000 184.306,244.000 182.126 C 244.000 176.158,254.259 169.907,260.613 172.004 C 270.857 175.385,273.159 202.817,263.734 209.200 C 259.190 212.278,251.619 208.748,248.172 201.944 C 246.897 199.430,246.790 199.494,247.455 202.373 C 249.532 211.360,253.996 219.939,257.492 221.660 C 261.103 223.439,271.915 222.881,277.444 220.632 C 293.073 214.273,296.900 190.429,286.918 161.600 C 280.541 143.183,267.715 130.108,258.294 132.420 M80.000 214.927 C 80.000 214.997,80.258 215.942,80.573 217.027 C 80.888 218.112,81.354 220.090,81.609 221.422 L 82.073 223.843 85.737 224.525 C 87.751 224.900,91.560 225.637,94.200 226.164 C 96.840 226.691,101.430 227.607,104.400 228.200 C 116.699 230.655,119.212 231.150,123.600 231.987 C 129.110 233.037,129.350 233.207,127.126 234.489 C 124.588 235.953,110.619 243.674,107.600 245.281 C 106.170 246.043,104.010 247.212,102.800 247.879 C 97.941 250.560,96.440 251.392,92.683 253.483 L 88.767 255.664 90.246 258.332 C 91.542 260.670,95.550 267.546,95.849 267.946 C 95.910 268.027,97.723 266.929,99.880 265.506 C 102.036 264.084,107.580 260.433,112.200 257.393 C 116.820 254.353,125.550 248.597,131.600 244.600 C 143.712 236.600,155.429 228.909,158.734 226.790 C 161.452 225.047,161.555 225.087,151.200 223.805 C 146.690 223.247,138.860 222.249,133.800 221.588 C 128.740 220.927,122.350 220.119,119.600 219.792 C 116.850 219.466,112.710 218.929,110.400 218.600 C 108.090 218.271,103.950 217.718,101.200 217.372 C 98.450 217.026,92.780 216.307,88.600 215.774 C 80.861 214.787,80.000 214.702,80.000 214.927 M380.373 235.585 C 387.070 254.306,381.566 272.752,365.124 286.691 C 339.953 308.030,290.573 319.912,220.065 321.595 C 185.863 322.411,169.340 319.532,161.321 311.362 C 153.410 303.302,158.339 288.159,174.924 269.565 L 178.282 265.800 178.479 262.800 C 179.199 251.841,192.536 242.854,212.893 239.611 C 230.897 236.744,244.263 240.838,263.800 255.205 C 270.293 259.981,278.733 259.383,306.200 252.204 C 308.400 251.629,311.460 250.831,313.000 250.430 C 316.294 249.572,326.940 246.560,335.000 244.206 C 336.980 243.627,340.087 242.721,341.904 242.192 C 343.721 241.664,346.691 240.798,348.504 240.270 C 350.317 239.741,353.510 238.814,355.600 238.211 C 357.690 237.607,360.930 236.668,362.800 236.124 C 366.425 235.070,372.117 233.479,375.400 232.602 C 379.023 231.635,378.943 231.587,380.373 235.585 M237.331 248.583 C 235.048 249.576,234.146 253.057,236.300 252.563 C 241.486 251.374,246.007 249.155,244.800 248.392 C 243.899 247.822,238.779 247.953,237.331 248.583 M205.400 258.154 C 203.184 259.120,201.761 262.400,203.559 262.400 C 205.842 262.400,213.484 258.783,212.967 257.947 C 212.634 257.408,206.742 257.569,205.400 258.154 " stroke="none" fill="#070706" fill-rule="evenodd"></path><path id="path1" d="M106.268 34.709 C 103.668 46.809,107.346 58.905,116.496 68.347 C 120.079 72.045,126.800 80.679,126.800 81.584 C 126.800 82.516,119.338 81.457,115.988 80.049 C 106.571 76.092,98.592 65.008,95.603 51.731 L 94.688 47.662 91.244 47.433 C 85.500 47.049,81.331 46.518,74.000 45.234 C 62.871 43.285,40.480 42.587,38.927 44.140 C 38.496 44.571,44.360 52.944,48.634 58.000 C 58.913 70.160,74.424 81.098,86.600 84.773 C 87.480 85.038,88.560 85.416,89.000 85.612 C 89.440 85.809,90.880 86.268,92.200 86.633 C 93.520 86.998,94.780 87.431,95.000 87.596 C 95.220 87.761,96.120 88.124,97.000 88.403 C 100.620 89.550,110.400 94.162,110.400 94.722 C 110.400 95.313,102.450 97.235,98.999 97.479 C 95.050 97.758,90.747 97.173,85.467 95.641 L 81.533 94.499 77.667 97.121 C 61.677 107.962,46.881 122.539,36.174 138.000 C 18.957 162.860,13.171 193.026,20.404 220.219 C 21.670 224.978,23.597 231.235,24.235 232.660 C 24.546 233.354,24.800 234.044,24.800 234.193 C 24.800 234.343,25.357 235.756,26.039 237.333 C 28.193 242.321,29.156 244.354,32.749 251.507 C 33.402 252.808,36.917 258.818,38.184 260.800 C 44.372 270.482,47.981 275.391,55.950 284.963 L 60.914 290.925 60.273 292.163 C 53.365 305.492,52.974 321.397,59.263 333.200 C 61.971 338.282,64.790 340.676,74.409 346.066 C 79.485 348.910,85.154 351.648,88.653 352.945 C 91.318 353.933,94.567 355.210,95.400 355.597 C 96.577 356.145,104.739 358.800,105.246 358.800 C 105.484 358.800,106.246 359.060,106.940 359.379 C 109.721 360.656,125.313 364.221,136.000 366.024 C 138.774 366.492,147.927 367.515,154.200 368.058 C 160.005 368.560,183.272 368.249,186.400 367.626 C 187.610 367.386,191.300 366.849,194.600 366.434 C 201.788 365.530,214.819 362.861,217.937 361.655 C 218.522 361.429,220.170 360.936,221.600 360.559 C 223.030 360.183,224.380 359.745,224.600 359.586 C 224.820 359.427,226.080 358.988,227.400 358.610 C 228.720 358.233,229.980 357.785,230.200 357.615 C 230.420 357.445,231.565 356.991,232.745 356.606 C 233.925 356.221,235.365 355.658,235.945 355.355 C 236.525 355.053,237.131 354.804,237.291 354.802 C 237.581 354.800,242.163 352.742,245.595 351.073 C 249.477 349.184,261.098 342.640,262.600 341.495 C 262.820 341.328,264.800 339.997,267.000 338.538 C 271.532 335.532,276.665 331.741,277.053 331.114 C 277.230 330.828,276.622 330.778,275.156 330.957 C 231.039 336.334,187.803 336.073,169.000 330.316 C 138.907 321.103,136.342 294.899,162.499 263.898 C 165.155 260.751,165.506 260.133,165.971 257.795 C 171.161 231.684,219.064 216.998,250.675 231.827 C 251.817 232.362,252.837 232.800,252.942 232.800 C 253.945 232.800,264.743 239.619,269.524 243.272 C 273.293 246.152,278.777 245.676,298.068 240.794 L 301.536 239.917 301.768 238.058 C 305.099 211.319,302.334 175.924,295.107 152.800 C 282.319 111.876,250.472 81.841,208.800 71.403 C 207.370 71.045,205.660 70.582,205.000 70.373 C 201.158 69.160,190.306 67.182,181.000 65.999 C 176.651 65.446,157.531 64.623,156.300 64.936 C 155.317 65.185,155.200 65.395,155.201 66.908 C 155.203 68.999,153.644 74.403,153.042 74.392 C 152.799 74.388,152.060 73.470,151.400 72.352 C 150.322 70.525,148.779 68.524,139.917 57.457 C 134.824 51.096,124.125 42.130,113.600 35.403 C 106.286 30.727,107.107 30.805,106.268 34.709 M266.889 133.581 C 277.323 139.042,285.483 152.235,290.158 171.200 C 295.979 194.818,292.100 213.024,279.761 219.987 C 272.601 224.028,258.729 224.298,255.067 220.468 C 251.800 217.051,247.480 206.024,245.794 196.800 C 245.452 194.930,244.744 191.023,244.221 188.119 C 243.698 185.214,243.171 182.676,243.049 182.480 C 242.695 181.907,241.200 167.015,241.200 164.061 C 241.200 142.312,254.170 126.923,266.889 133.581 M87.800 215.250 C 88.900 215.454,92.950 215.979,96.800 216.418 C 100.650 216.857,104.070 217.299,104.400 217.400 C 104.730 217.501,108.060 217.940,111.800 218.376 C 115.540 218.812,120.580 219.442,123.000 219.775 C 131.478 220.942,137.054 221.664,143.374 222.414 C 146.880 222.829,150.210 223.270,150.774 223.394 C 151.338 223.517,153.926 223.865,156.525 224.167 C 160.808 224.665,162.045 224.951,161.567 225.333 C 161.403 225.464,156.062 228.981,141.000 238.874 C 132.901 244.194,121.261 251.864,106.020 261.924 C 100.861 265.329,96.383 268.134,96.067 268.158 C 95.391 268.208,87.961 255.849,88.435 255.462 C 88.526 255.387,97.476 250.419,108.325 244.422 C 119.174 238.424,127.994 233.461,127.925 233.393 C 127.800 233.268,115.076 230.654,107.200 229.135 C 104.890 228.690,100.930 227.915,98.400 227.413 C 95.870 226.911,91.280 226.020,88.200 225.432 C 81.586 224.169,81.818 224.347,80.810 219.787 C 79.476 213.750,79.522 213.719,87.800 215.250 " stroke="none" fill="#fbf323" fill-rule="evenodd"></path><path id="path2" d="M106.638 31.538 C 106.523 31.724,106.339 32.669,106.228 33.638 C 106.032 35.348,106.079 35.255,106.797 32.500 C 107.126 31.236,107.063 30.851,106.638 31.538 M105.340 42.800 C 105.340 44.670,105.409 45.435,105.493 44.500 C 105.577 43.565,105.577 42.035,105.493 41.100 C 105.409 40.165,105.340 40.930,105.340 42.800 M92.305 47.483 C 92.802 47.579,93.522 47.575,93.905 47.475 C 94.287 47.375,93.880 47.296,93.000 47.301 C 92.120 47.305,91.807 47.387,92.305 47.483 M42.400 50.400 C 42.870 51.060,43.344 51.600,43.454 51.600 C 43.564 51.600,43.270 51.060,42.800 50.400 C 42.330 49.740,41.856 49.200,41.746 49.200 C 41.636 49.200,41.930 49.740,42.400 50.400 M106.056 50.400 C 106.056 50.730,106.211 51.360,106.400 51.800 C 106.617 52.304,106.744 52.378,106.744 52.000 C 106.744 51.670,106.589 51.040,106.400 50.600 C 106.183 50.096,106.056 50.022,106.056 50.400 M44.400 53.200 C 44.870 53.860,45.344 54.400,45.454 54.400 C 45.564 54.400,45.270 53.860,44.800 53.200 C 44.330 52.540,43.856 52.000,43.746 52.000 C 43.636 52.000,43.930 52.540,44.400 53.200 M51.400 61.600 C 52.483 62.700,53.460 63.600,53.570 63.600 C 53.680 63.600,52.883 62.700,51.800 61.600 C 50.717 60.500,49.740 59.600,49.630 59.600 C 49.520 59.600,50.317 60.500,51.400 61.600 M111.964 63.533 C 112.180 63.936,112.671 64.521,113.055 64.833 C 113.487 65.184,113.390 64.904,112.801 64.100 C 111.751 62.665,111.357 62.398,111.964 63.533 M56.000 66.200 C 57.195 67.410,58.263 68.400,58.373 68.400 C 58.483 68.400,57.595 67.410,56.400 66.200 C 55.205 64.990,54.137 64.000,54.027 64.000 C 53.917 64.000,54.805 64.990,56.000 66.200 M166.300 65.082 C 166.795 65.178,167.605 65.178,168.100 65.082 C 168.595 64.987,168.190 64.909,167.200 64.909 C 166.210 64.909,165.805 64.987,166.300 65.082 M115.200 67.325 C 115.200 67.394,115.785 67.979,116.500 68.625 L 117.800 69.800 116.625 68.500 C 115.530 67.288,115.200 67.016,115.200 67.325 M118.754 71.136 C 119.199 71.760,119.879 72.525,120.265 72.836 C 120.652 73.146,120.360 72.635,119.617 71.700 C 118.091 69.780,117.525 69.410,118.754 71.136 M63.600 72.546 C 63.600 72.656,64.140 73.130,64.800 73.600 C 65.460 74.070,66.000 74.364,66.000 74.254 C 66.000 74.144,65.460 73.670,64.800 73.200 C 64.140 72.730,63.600 72.436,63.600 72.546 M122.000 75.200 C 122.697 76.080,123.357 76.800,123.467 76.800 C 123.577 76.800,123.097 76.080,122.400 75.200 C 121.703 74.320,121.043 73.600,120.933 73.600 C 120.823 73.600,121.303 74.320,122.000 75.200 M124.705 81.883 C 125.202 81.979,125.922 81.975,126.305 81.875 C 126.687 81.775,126.280 81.696,125.400 81.701 C 124.520 81.705,124.207 81.787,124.705 81.883 M86.446 84.980 C 86.581 85.114,87.289 85.396,88.019 85.605 C 88.749 85.815,89.178 85.832,88.973 85.645 C 88.548 85.256,86.071 84.604,86.446 84.980 M92.800 86.934 C 92.800 87.037,93.381 87.324,94.091 87.572 C 94.801 87.819,95.206 87.857,94.991 87.656 C 94.535 87.229,92.800 86.658,92.800 86.934 M58.581 112.100 L 57.000 113.800 58.794 112.200 C 59.780 111.320,60.665 110.555,60.761 110.500 C 60.856 110.445,60.760 110.400,60.548 110.400 C 60.336 110.400,59.451 111.165,58.581 112.100 M47.807 122.793 C 46.952 123.669,46.330 124.445,46.426 124.518 C 46.522 124.591,47.298 123.874,48.152 122.925 C 50.101 120.759,49.877 120.673,47.807 122.793 M274.000 139.000 C 274.746 139.770,275.447 140.400,275.557 140.400 C 275.667 140.400,275.146 139.770,274.400 139.000 C 273.654 138.230,272.953 137.600,272.843 137.600 C 272.733 137.600,273.254 138.230,274.000 139.000 M28.200 150.800 C 27.859 151.460,27.669 152.000,27.779 152.000 C 27.889 152.000,28.259 151.460,28.600 150.800 C 28.941 150.140,29.131 149.600,29.021 149.600 C 28.911 149.600,28.541 150.140,28.200 150.800 M241.350 164.200 C 241.351 166.620,241.416 167.558,241.496 166.285 C 241.576 165.012,241.575 163.032,241.494 161.885 C 241.414 160.738,241.349 161.780,241.350 164.200 M20.229 171.429 C 20.081 172.015,20.038 172.572,20.132 172.666 C 20.227 172.760,20.424 172.358,20.571 171.771 C 20.719 171.185,20.762 170.628,20.668 170.534 C 20.573 170.440,20.376 170.842,20.229 171.429 M18.200 181.200 C 18.045 182.328,18.002 183.336,18.106 183.439 C 18.209 183.542,18.416 182.700,18.567 181.567 C 18.717 180.434,18.759 179.426,18.661 179.328 C 18.563 179.229,18.355 180.072,18.200 181.200 M292.493 186.000 C 292.493 186.770,292.575 187.085,292.676 186.700 C 292.776 186.315,292.776 185.685,292.676 185.300 C 292.575 184.915,292.493 185.230,292.493 186.000 M17.301 190.600 C 17.305 191.480,17.387 191.793,17.483 191.295 C 17.579 190.798,17.575 190.078,17.475 189.695 C 17.375 189.313,17.296 189.720,17.301 190.600 M17.301 201.000 C 17.305 201.880,17.387 202.193,17.483 201.695 C 17.579 201.198,17.575 200.478,17.475 200.095 C 17.375 199.713,17.296 200.120,17.301 201.000 M302.928 202.800 C 302.928 204.230,303.001 204.815,303.089 204.100 C 303.178 203.385,303.178 202.215,303.089 201.500 C 303.001 200.785,302.928 201.370,302.928 202.800 M18.047 209.233 C 18.073 209.985,18.241 211.140,18.420 211.800 C 18.635 212.589,18.670 212.178,18.523 210.600 C 18.277 207.955,17.973 207.081,18.047 209.233 M302.934 217.600 C 302.934 219.250,303.005 219.925,303.091 219.100 C 303.178 218.275,303.178 216.925,303.091 216.100 C 303.005 215.275,302.934 215.950,302.934 217.600 M22.056 226.800 C 22.056 227.130,22.211 227.760,22.400 228.200 C 22.617 228.704,22.744 228.778,22.744 228.400 C 22.744 228.070,22.589 227.440,22.400 227.000 C 22.183 226.496,22.056 226.422,22.056 226.800 M24.067 233.220 C 24.301 233.892,24.567 234.367,24.657 234.276 C 24.856 234.078,24.101 232.000,23.831 232.000 C 23.727 232.000,23.833 232.549,24.067 233.220 M373.800 233.408 C 371.820 233.913,368.670 234.769,366.800 235.310 C 364.930 235.850,361.690 236.786,359.600 237.389 C 357.510 237.993,354.270 238.937,352.400 239.487 C 350.530 240.037,347.560 240.903,345.800 241.412 C 344.040 241.920,339.090 243.360,334.800 244.610 C 330.510 245.860,325.830 247.204,324.400 247.596 C 322.970 247.988,319.730 248.888,317.200 249.597 C 296.443 255.409,280.127 258.811,273.107 258.791 C 269.029 258.779,266.513 257.839,262.800 254.941 C 259.982 252.742,253.833 248.566,251.629 247.354 C 247.195 244.916,245.264 243.988,242.303 242.873 C 216.354 233.105,180.043 244.729,178.879 263.178 L 178.688 266.200 175.439 269.620 C 170.130 275.210,164.776 282.724,161.719 288.876 C 151.332 309.780,161.964 319.271,197.920 321.193 C 208.701 321.769,243.043 320.698,255.200 319.406 C 258.170 319.090,263.030 318.633,266.000 318.390 C 268.970 318.148,272.300 317.781,273.400 317.576 C 274.500 317.371,278.100 316.845,281.400 316.406 C 341.585 308.406,378.754 286.299,382.437 256.311 C 383.282 249.426,382.068 240.225,379.537 234.342 C 378.578 232.114,378.752 232.142,373.800 233.408 M25.628 237.000 C 25.628 237.220,25.886 237.850,26.200 238.400 C 26.514 238.950,26.772 239.220,26.772 239.000 C 26.772 238.780,26.514 238.150,26.200 237.600 C 25.886 237.050,25.628 236.780,25.628 237.000 M271.963 245.324 C 272.142 245.503,273.169 245.590,274.244 245.518 L 276.200 245.387 273.919 245.194 C 272.664 245.087,271.784 245.146,271.963 245.324 M30.200 247.200 C 30.541 247.860,30.911 248.400,31.021 248.400 C 31.131 248.400,30.941 247.860,30.600 247.200 C 30.259 246.540,29.889 246.000,29.779 246.000 C 29.669 246.000,29.859 246.540,30.200 247.200 M244.195 247.950 C 247.130 248.579,245.479 249.971,239.400 251.993 C 234.800 253.523,234.800 253.523,234.800 251.670 C 234.800 248.553,239.084 246.857,244.195 247.950 M212.852 257.628 C 214.376 258.443,212.347 259.806,206.348 261.995 C 202.692 263.329,202.160 263.203,202.556 261.094 C 203.131 258.030,209.560 255.866,212.852 257.628 M47.964 275.533 C 48.180 275.936,48.671 276.521,49.055 276.833 C 49.487 277.184,49.390 276.904,48.801 276.100 C 47.751 274.665,47.357 274.398,47.964 275.533 M54.399 283.599 C 55.319 284.698,56.281 285.726,56.536 285.883 C 56.791 286.039,56.123 285.140,55.051 283.884 C 53.980 282.628,53.018 281.600,52.914 281.600 C 52.810 281.600,53.479 282.499,54.399 283.599 M59.763 289.902 C 60.412 290.667,60.456 290.969,60.057 291.902 C 59.621 292.920,59.631 292.944,60.193 292.224 C 61.018 291.167,60.958 290.657,59.900 289.762 L 59.000 289.000 59.763 289.902 M58.065 296.217 C 57.395 297.688,57.523 298.002,58.247 296.665 C 58.586 296.040,58.788 295.454,58.696 295.363 C 58.605 295.271,58.321 295.656,58.065 296.217 M54.534 314.800 C 54.534 316.450,54.605 317.125,54.691 316.300 C 54.778 315.475,54.778 314.125,54.691 313.300 C 54.605 312.475,54.534 313.150,54.534 314.800 M56.048 326.000 C 56.042 326.330,56.283 327.140,56.586 327.800 C 57.293 329.345,57.303 328.626,56.600 326.800 C 56.303 326.030,56.055 325.670,56.048 326.000 M194.500 334.687 C 195.105 334.778,196.095 334.778,196.700 334.687 C 197.305 334.595,196.810 334.520,195.600 334.520 C 194.390 334.520,193.895 334.595,194.500 334.687 M220.713 334.695 C 221.876 334.776,223.676 334.776,224.713 334.693 C 225.751 334.611,224.800 334.545,222.600 334.546 C 220.400 334.547,219.551 334.614,220.713 334.695 M62.200 337.948 C 62.860 338.677,63.940 339.646,64.600 340.101 C 66.018 341.080,65.698 340.734,63.000 338.374 C 61.522 337.081,61.313 336.970,62.200 337.948 M89.200 353.400 C 89.750 353.714,90.380 353.972,90.600 353.972 C 90.820 353.972,90.550 353.714,90.000 353.400 C 89.450 353.086,88.820 352.828,88.600 352.828 C 88.380 352.828,88.650 353.086,89.200 353.400 M99.200 357.133 C 99.530 357.336,100.250 357.624,100.800 357.771 C 101.495 357.957,101.617 357.925,101.200 357.667 C 100.870 357.464,100.150 357.176,99.600 357.029 C 98.905 356.843,98.783 356.875,99.200 357.133 M230.900 357.212 C 229.561 357.751,229.811 358.024,231.200 357.540 C 231.860 357.310,232.400 357.049,232.400 356.961 C 232.400 356.724,231.913 356.805,230.900 357.212 M105.200 358.934 C 105.200 359.037,105.781 359.324,106.491 359.572 C 107.201 359.819,107.606 359.857,107.391 359.656 C 106.935 359.229,105.200 358.658,105.200 358.934 M225.300 359.212 C 223.961 359.751,224.211 360.024,225.600 359.540 C 226.260 359.310,226.800 359.049,226.800 358.961 C 226.800 358.724,226.313 358.805,225.300 359.212 M211.256 363.259 C 210.517 363.472,209.990 363.723,210.085 363.818 C 210.180 363.913,211.054 363.740,212.029 363.435 C 214.018 362.811,213.345 362.658,211.256 363.259 M121.233 363.344 C 121.325 363.423,121.940 363.608,122.600 363.756 C 123.476 363.952,123.638 363.915,123.200 363.618 C 122.660 363.253,120.832 362.998,121.233 363.344 M130.833 365.343 C 130.925 365.422,131.720 365.597,132.600 365.732 C 133.690 365.899,134.009 365.855,133.600 365.595 C 133.053 365.246,130.445 365.009,130.833 365.343 M200.800 365.606 C 200.378 365.882,200.615 365.923,201.600 365.742 C 203.325 365.425,203.651 365.198,202.367 365.206 C 201.835 365.209,201.130 365.389,200.800 365.606 M144.833 367.344 C 144.925 367.423,146.170 367.586,147.600 367.706 C 149.160 367.837,149.800 367.795,149.200 367.602 C 148.212 367.284,144.511 367.065,144.833 367.344 M186.000 367.602 C 185.400 367.795,186.040 367.837,187.600 367.706 C 189.030 367.586,190.275 367.423,190.367 367.344 C 190.689 367.065,186.988 367.284,186.000 367.602 M166.500 368.687 C 167.105 368.778,168.095 368.778,168.700 368.687 C 169.305 368.595,168.810 368.520,167.600 368.520 C 166.390 368.520,165.895 368.595,166.500 368.687 " stroke="none" fill="#f9ac26" fill-rule="evenodd"></path><path id="path3" d="M255.047 172.030 C 246.408 174.141,242.684 180.689,244.565 190.465 C 249.415 215.686,269.551 216.933,269.359 192.000 C 269.255 178.491,263.198 170.038,255.047 172.030 " stroke="none" fill="#fbfbfb" fill-rule="evenodd"></path><path id="path4" d="M106.400 31.267 C 106.400 31.523,106.513 31.621,106.651 31.483 C 106.789 31.345,107.464 31.506,108.151 31.840 L 109.400 32.448 108.400 31.633 C 107.282 30.722,106.400 30.560,106.400 31.267 M112.974 34.758 C 113.123 34.999,113.616 35.395,114.071 35.638 C 114.662 35.954,114.820 35.956,114.626 35.642 C 114.477 35.401,113.984 35.005,113.529 34.762 C 112.938 34.446,112.780 34.444,112.974 34.758 M105.054 37.856 C 104.743 40.124,104.801 46.566,105.147 48.177 C 105.286 48.825,105.406 46.350,105.413 42.677 C 105.428 35.312,105.419 35.193,105.054 37.856 M115.200 36.124 C 115.200 36.217,115.965 36.798,116.900 37.415 C 117.835 38.032,118.389 38.280,118.131 37.968 C 117.634 37.367,115.200 35.836,115.200 36.124 M119.000 38.705 C 119.622 39.362,126.000 44.019,126.000 43.816 C 126.000 43.717,124.605 42.581,122.900 41.291 C 119.735 38.896,118.247 37.910,119.000 38.705 M42.800 43.160 C 41.810 43.292,46.310 43.400,52.800 43.400 C 59.290 43.400,63.520 43.285,62.200 43.143 C 59.211 42.824,45.232 42.836,42.800 43.160 M38.239 43.937 C 37.767 44.700,48.361 59.600,49.376 59.600 C 49.512 59.600,48.445 58.176,47.006 56.436 C 45.566 54.696,43.024 51.231,41.356 48.736 L 38.323 44.200 39.462 43.947 L 40.600 43.695 39.524 43.647 C 38.932 43.621,38.353 43.752,38.239 43.937 M65.300 43.876 C 65.685 43.976,66.315 43.976,66.700 43.876 C 67.085 43.775,66.770 43.693,66.000 43.693 C 65.230 43.693,64.915 43.775,65.300 43.876 M128.600 46.046 C 133.570 50.458,139.337 56.300,141.485 59.100 C 144.009 62.388,144.707 62.948,142.733 60.100 C 141.135 57.796,131.453 48.025,128.400 45.637 L 126.200 43.916 128.600 46.046 M73.800 44.998 C 75.120 45.310,76.560 45.557,77.000 45.548 C 78.310 45.520,75.941 44.913,73.523 44.656 L 71.400 44.431 73.800 44.998 M85.000 46.820 C 86.100 46.990,88.643 47.146,90.651 47.165 C 94.513 47.202,94.977 47.405,95.307 49.200 C 95.468 50.075,95.498 50.043,95.546 48.949 C 95.626 47.092,95.129 46.927,88.800 46.710 C 85.391 46.592,83.824 46.638,85.000 46.820 M106.253 52.400 C 106.565 54.156,107.163 55.770,107.410 55.523 C 107.513 55.420,107.239 54.360,106.801 53.168 C 106.224 51.598,106.073 51.386,106.253 52.400 M96.040 53.027 C 95.979 53.678,97.230 57.704,97.430 57.503 C 97.527 57.406,97.263 56.263,96.843 54.964 C 96.423 53.664,96.062 52.792,96.040 53.027 M108.000 56.949 C 108.000 57.381,109.589 60.400,109.816 60.400 C 109.926 60.400,109.630 59.635,109.159 58.700 C 108.232 56.861,108.000 56.511,108.000 56.949 M98.034 59.400 C 98.034 59.620,98.378 60.430,98.800 61.200 C 99.222 61.970,99.566 62.420,99.566 62.200 C 99.566 61.980,99.222 61.170,98.800 60.400 C 98.378 59.630,98.034 59.180,98.034 59.400 M53.800 64.329 C 58.399 69.058,64.219 73.802,69.399 77.041 C 73.160 79.394,81.573 83.760,81.837 83.496 C 81.921 83.412,79.967 82.334,77.495 81.101 C 68.568 76.647,62.171 72.068,54.200 64.431 L 49.800 60.215 53.800 64.329 M110.578 61.875 C 110.917 62.576,111.394 63.272,111.637 63.423 C 112.174 63.755,111.595 62.615,110.610 61.400 C 110.008 60.657,110.006 60.691,110.578 61.875 M100.600 64.800 C 100.941 65.460,101.311 66.000,101.421 66.000 C 101.531 66.000,101.341 65.460,101.000 64.800 C 100.659 64.140,100.289 63.600,100.179 63.600 C 100.069 63.600,100.259 64.140,100.600 64.800 M154.784 64.700 C 154.776 64.865,154.681 66.160,154.573 67.578 C 154.466 68.995,154.474 70.059,154.591 69.942 C 154.708 69.825,154.879 68.665,154.971 67.365 L 155.137 65.000 161.869 64.785 L 168.600 64.571 161.700 64.485 C 157.905 64.438,154.793 64.535,154.784 64.700 M168.833 64.945 C 168.925 65.024,171.070 65.185,173.600 65.301 C 176.547 65.437,177.553 65.396,176.400 65.186 C 174.614 64.862,168.514 64.667,168.833 64.945 M102.277 67.631 C 102.675 68.308,103.256 69.073,103.568 69.331 C 103.880 69.589,103.632 69.035,103.015 68.100 C 101.720 66.137,101.209 65.812,102.277 67.631 M116.680 69.439 C 118.245 71.178,120.101 73.230,120.806 74.000 L 122.087 75.400 120.830 73.726 C 119.171 71.516,114.769 66.643,114.247 66.439 C 114.021 66.351,115.116 67.701,116.680 69.439 M189.200 67.038 C 190.850 67.341,192.380 67.530,192.600 67.457 C 193.092 67.294,188.031 66.383,186.967 66.443 C 186.545 66.467,187.550 66.735,189.200 67.038 M148.574 68.100 C 149.190 68.925,149.770 69.600,149.862 69.600 C 150.214 69.600,149.231 68.154,148.363 67.396 C 147.617 66.744,147.655 66.872,148.574 68.100 M199.800 69.028 C 200.900 69.334,201.980 69.569,202.200 69.550 C 202.877 69.492,199.452 68.461,198.600 68.467 C 198.160 68.469,198.700 68.722,199.800 69.028 M104.684 71.000 C 105.606 72.298,109.600 76.314,109.600 75.944 C 109.600 75.820,108.302 74.387,106.715 72.759 C 105.129 71.132,104.215 70.340,104.684 71.000 M207.000 70.739 C 208.237 71.268,210.310 71.677,209.600 71.251 C 209.270 71.054,208.370 70.780,207.600 70.644 C 206.656 70.477,206.460 70.508,207.000 70.739 M152.058 73.310 C 152.534 74.411,153.262 74.598,153.445 73.665 C 153.515 73.310,153.480 73.306,153.317 73.650 C 153.173 73.953,152.825 73.779,152.336 73.160 L 151.578 72.200 152.058 73.310 M214.400 73.000 C 216.226 73.703,216.945 73.693,215.400 72.986 C 214.740 72.683,213.930 72.442,213.600 72.448 C 213.270 72.455,213.630 72.703,214.400 73.000 M219.200 74.484 C 219.310 74.593,220.026 74.893,220.791 75.151 C 221.556 75.410,222.006 75.450,221.791 75.239 C 221.576 75.029,220.860 74.729,220.200 74.572 C 219.540 74.416,219.090 74.376,219.200 74.484 M122.440 76.300 C 125.371 80.111,127.122 82.178,126.592 81.200 C 126.084 80.264,122.357 75.600,122.117 75.600 C 121.999 75.600,122.144 75.915,122.440 76.300 M110.164 76.333 C 110.511 76.904,114.139 79.296,115.300 79.720 C 116.602 80.194,116.011 79.622,114.300 78.750 C 113.365 78.274,111.979 77.416,111.220 76.842 C 110.461 76.269,109.986 76.040,110.164 76.333 M225.600 77.000 C 226.150 77.314,226.780 77.572,227.000 77.572 C 227.220 77.572,226.950 77.314,226.400 77.000 C 225.850 76.686,225.220 76.428,225.000 76.428 C 224.780 76.428,225.050 76.686,225.600 77.000 M228.454 78.187 C 228.790 78.523,231.600 79.616,231.600 79.411 C 231.600 79.301,230.948 78.938,230.151 78.605 C 228.675 77.989,228.118 77.851,228.454 78.187 M232.833 80.149 C 233.245 80.517,235.600 81.600,235.600 81.421 C 235.600 81.190,233.382 80.000,232.953 80.000 C 232.796 80.000,232.742 80.067,232.833 80.149 M118.507 80.818 C 118.896 81.055,120.516 81.319,122.107 81.406 L 125.000 81.565 122.400 81.198 C 120.970 80.996,119.350 80.732,118.800 80.610 C 117.956 80.424,117.910 80.456,118.507 80.818 M237.945 82.823 C 238.685 83.274,239.377 83.557,239.482 83.451 C 239.684 83.250,237.473 81.999,236.920 82.001 C 236.744 82.002,237.205 82.372,237.945 82.823 M240.200 83.890 C 240.420 84.100,241.320 84.676,242.200 85.170 C 243.080 85.665,243.440 85.770,243.000 85.404 C 242.106 84.661,239.572 83.291,240.200 83.890 M83.600 84.238 C 83.600 84.439,84.857 84.945,86.400 85.366 C 87.262 85.601,87.299 85.575,86.671 85.183 C 85.824 84.654,83.600 83.970,83.600 84.238 M89.200 86.170 C 89.200 86.410,93.338 87.595,93.525 87.408 C 93.610 87.324,92.728 86.972,91.567 86.627 C 89.233 85.934,89.200 85.928,89.200 86.170 M244.025 86.137 C 244.216 86.346,247.924 88.789,249.500 89.744 C 250.945 90.620,249.706 89.518,247.900 88.322 C 245.750 86.897,243.623 85.698,244.025 86.137 M96.602 88.741 C 97.483 89.150,98.653 89.598,99.202 89.737 C 99.751 89.876,99.480 89.652,98.600 89.239 C 97.720 88.826,96.550 88.378,96.000 88.244 C 95.450 88.109,95.721 88.333,96.602 88.741 M100.400 90.195 C 100.400 90.488,103.295 91.638,103.505 91.429 C 103.605 91.329,103.015 90.966,102.194 90.623 C 100.568 89.944,100.400 89.904,100.400 90.195 M251.000 90.680 C 251.220 90.888,252.210 91.646,253.200 92.365 L 255.000 93.672 253.600 92.408 C 252.374 91.301,249.956 89.694,251.000 90.680 M106.138 92.847 C 106.984 93.293,107.768 93.565,107.881 93.452 C 108.076 93.257,105.380 91.980,104.851 92.018 C 104.713 92.027,105.292 92.400,106.138 92.847 M256.200 94.591 C 259.738 97.761,262.125 99.726,261.801 99.202 C 261.386 98.530,259.962 97.295,257.025 95.058 C 255.911 94.210,255.540 94.000,256.200 94.591 M80.516 94.250 C 80.654 94.387,80.369 94.848,79.883 95.273 L 79.000 96.047 80.100 95.378 C 81.236 94.686,81.551 94.000,80.733 94.000 C 80.477 94.000,80.379 94.112,80.516 94.250 M109.374 94.357 C 109.495 94.554,109.101 94.846,108.497 95.007 C 107.894 95.167,107.598 95.372,107.839 95.462 C 108.531 95.720,110.476 94.846,110.200 94.401 C 110.064 94.180,109.773 94.000,109.553 94.000 C 109.333 94.000,109.252 94.161,109.374 94.357 M83.600 95.000 C 84.370 95.297,85.270 95.539,85.600 95.539 C 85.930 95.539,85.570 95.297,84.800 95.000 C 84.030 94.703,83.130 94.461,82.800 94.461 C 82.470 94.461,82.830 94.703,83.600 95.000 M90.800 96.840 C 92.659 97.395,101.481 97.398,103.000 96.843 C 104.196 96.407,104.195 96.406,102.735 96.614 C 100.703 96.904,93.810 96.926,91.398 96.650 C 89.548 96.439,89.504 96.453,90.800 96.840 M71.461 101.011 C 69.557 102.446,68.000 103.714,68.000 103.829 C 68.000 103.943,69.485 102.920,71.300 101.557 C 74.983 98.789,75.457 98.400,75.141 98.400 C 75.021 98.400,73.365 99.575,71.461 101.011 M266.200 103.600 C 268.171 105.580,269.873 107.200,269.983 107.200 C 270.093 107.200,268.571 105.580,266.600 103.600 C 264.629 101.620,262.927 100.000,262.817 100.000 C 262.707 100.000,264.229 101.620,266.200 103.600 M61.400 109.083 C 56.910 113.182,54.416 115.598,54.693 115.580 C 54.862 115.569,56.890 113.769,59.200 111.580 C 63.200 107.790,64.781 105.996,61.400 109.083 M273.200 111.400 C 273.717 111.950,274.206 112.400,274.288 112.400 C 274.621 112.400,272.972 110.424,272.630 110.413 C 272.427 110.406,272.683 110.850,273.200 111.400 M276.800 116.000 C 277.270 116.660,277.744 117.200,277.854 117.200 C 277.964 117.200,277.670 116.660,277.200 116.000 C 276.730 115.340,276.256 114.800,276.146 114.800 C 276.036 114.800,276.330 115.340,276.800 116.000 M278.800 118.800 C 279.270 119.460,279.744 120.000,279.854 120.000 C 279.964 120.000,279.670 119.460,279.200 118.800 C 278.730 118.140,278.256 117.600,278.146 117.600 C 278.036 117.600,278.330 118.140,278.800 118.800 M47.543 122.720 C 46.364 123.995,44.614 126.020,43.654 127.220 C 41.814 129.516,42.701 128.606,47.276 123.500 C 48.804 121.795,49.971 120.400,49.870 120.400 C 49.769 120.400,48.722 121.444,47.543 122.720 M280.349 121.000 C 280.565 121.440,281.034 122.160,281.393 122.600 L 282.044 123.400 281.651 122.600 C 281.435 122.160,280.966 121.440,280.607 121.000 L 279.956 120.200 280.349 121.000 M282.331 124.252 C 283.215 125.864,284.107 126.741,283.422 125.325 C 283.083 124.624,282.606 123.928,282.363 123.777 C 282.046 123.581,282.037 123.716,282.331 124.252 M39.285 132.700 C 36.939 135.794,35.085 138.558,35.865 137.800 C 36.535 137.149,42.015 129.600,41.817 129.600 C 41.717 129.600,40.578 130.995,39.285 132.700 M286.425 131.400 C 286.425 131.620,286.690 132.149,287.013 132.576 C 287.336 133.004,287.600 133.173,287.600 132.953 C 287.600 132.733,287.336 132.204,287.013 131.776 C 286.690 131.349,286.425 131.180,286.425 131.400 M255.500 133.029 C 254.895 133.357,254.400 133.714,254.400 133.823 C 254.400 133.932,254.895 133.771,255.500 133.465 C 256.105 133.160,256.870 132.809,257.200 132.686 C 257.733 132.488,257.733 132.461,257.200 132.448 C 256.870 132.439,256.105 132.701,255.500 133.029 M264.746 133.016 C 265.486 133.337,266.206 133.594,266.346 133.586 C 266.866 133.557,264.576 132.428,264.000 132.430 C 263.670 132.431,264.006 132.694,264.746 133.016 M251.548 135.888 C 250.438 136.926,249.167 138.321,248.723 138.988 C 248.232 139.726,248.487 139.542,249.376 138.518 C 250.179 137.593,251.593 136.202,252.518 135.426 C 253.443 134.650,254.057 134.012,253.883 134.008 C 253.708 134.004,252.658 134.849,251.548 135.888 M288.400 135.353 C 288.400 135.782,289.590 138.000,289.821 138.000 C 289.931 138.000,289.723 137.415,289.359 136.700 C 288.617 135.240,288.400 134.936,288.400 135.353 M272.086 137.543 C 273.344 138.696,275.214 140.576,276.242 141.720 C 277.270 142.864,277.740 143.260,277.286 142.600 C 276.418 141.338,271.966 136.944,270.600 135.999 C 270.160 135.695,270.829 136.390,272.086 137.543 M290.428 139.800 C 290.428 140.020,290.686 140.650,291.000 141.200 C 291.314 141.750,291.572 142.020,291.572 141.800 C 291.572 141.580,291.314 140.950,291.000 140.400 C 290.686 139.850,290.428 139.580,290.428 139.800 M247.353 140.900 C 245.976 143.236,245.886 143.435,246.587 142.600 C 247.400 141.632,248.100 140.400,247.838 140.400 C 247.733 140.400,247.515 140.625,247.353 140.900 M33.302 141.300 C 33.084 141.575,32.692 142.250,32.431 142.800 C 31.878 143.963,32.880 142.890,33.643 141.500 C 34.089 140.690,33.881 140.568,33.302 141.300 M30.823 145.450 C 30.353 146.248,30.033 146.966,30.113 147.046 C 30.192 147.126,30.661 146.473,31.154 145.596 C 32.275 143.602,31.988 143.477,30.823 145.450 M244.865 145.417 C 244.195 146.888,244.323 147.202,245.047 145.865 C 245.386 145.240,245.588 144.654,245.496 144.563 C 245.405 144.471,245.121 144.856,244.865 145.417 M292.629 145.200 C 292.776 145.750,293.064 146.470,293.267 146.800 C 293.525 147.217,293.557 147.095,293.371 146.400 C 293.224 145.850,292.936 145.130,292.733 144.800 C 292.475 144.383,292.443 144.505,292.629 145.200 M29.000 148.800 C 28.659 149.460,28.469 150.000,28.579 150.000 C 28.689 150.000,29.059 149.460,29.400 148.800 C 29.741 148.140,29.931 147.600,29.821 147.600 C 29.711 147.600,29.341 148.140,29.000 148.800 M242.831 151.062 C 242.597 151.908,242.420 152.870,242.438 153.200 C 242.456 153.530,242.717 152.906,243.016 151.814 C 243.316 150.721,243.493 149.760,243.410 149.676 C 243.326 149.593,243.066 150.217,242.831 151.062 M282.881 152.191 C 283.359 153.176,283.819 153.914,283.903 153.830 C 284.084 153.649,282.468 150.400,282.197 150.400 C 282.094 150.400,282.402 151.206,282.881 152.191 M26.778 153.058 C 26.557 153.639,26.264 154.297,26.126 154.519 C 25.989 154.742,26.066 154.806,26.299 154.663 C 26.739 154.390,27.700 152.000,27.369 152.000 C 27.265 152.000,26.999 152.476,26.778 153.058 M284.867 156.420 C 285.101 157.092,285.367 157.567,285.457 157.476 C 285.656 157.278,284.901 155.200,284.631 155.200 C 284.527 155.200,284.633 155.749,284.867 156.420 M24.600 157.861 C 24.264 158.665,24.082 159.415,24.195 159.528 C 24.308 159.641,24.400 159.635,24.400 159.516 C 24.400 159.396,24.672 158.646,25.005 157.849 C 25.338 157.052,25.521 156.400,25.411 156.400 C 25.301 156.400,24.936 157.058,24.600 157.861 M296.456 156.800 C 296.456 157.130,296.611 157.760,296.800 158.200 C 297.017 158.704,297.144 158.778,297.144 158.400 C 297.144 158.070,296.989 157.440,296.800 157.000 C 296.583 156.496,296.456 156.422,296.456 156.800 M241.693 158.400 C 241.693 159.170,241.775 159.485,241.876 159.100 C 241.976 158.715,241.976 158.085,241.876 157.700 C 241.775 157.315,241.693 157.630,241.693 158.400 M286.629 160.800 C 286.776 161.350,287.064 162.070,287.267 162.400 C 287.525 162.817,287.557 162.695,287.371 162.000 C 287.224 161.450,286.936 160.730,286.733 160.400 C 286.475 159.983,286.443 160.105,286.629 160.800 M22.865 162.217 C 22.609 162.778,22.407 163.454,22.416 163.719 C 22.424 163.983,22.697 163.588,23.022 162.839 C 23.705 161.265,23.561 160.690,22.865 162.217 M298.433 164.400 C 298.423 164.730,298.678 165.900,298.998 167.000 L 299.580 169.000 299.339 167.200 C 299.081 165.272,298.464 163.364,298.433 164.400 M288.654 167.000 C 289.074 168.903,289.648 170.046,289.356 168.400 C 289.220 167.630,288.946 166.730,288.749 166.400 C 288.514 166.008,288.481 166.216,288.654 167.000 M20.800 168.400 C 20.551 169.324,20.426 170.159,20.521 170.255 C 20.617 170.350,20.890 169.663,21.127 168.727 C 21.365 167.791,21.490 166.957,21.406 166.873 C 21.322 166.788,21.049 167.476,20.800 168.400 M241.709 170.000 C 241.709 170.990,241.787 171.395,241.882 170.900 C 241.978 170.405,241.978 169.595,241.882 169.100 C 241.787 168.605,241.709 169.010,241.709 170.000 M262.050 173.146 C 263.044 173.776,264.338 174.901,264.924 175.646 C 265.511 176.391,265.993 176.866,265.996 176.701 C 266.004 176.147,263.069 173.153,261.950 172.574 C 260.083 171.609,260.140 171.934,262.050 173.146 M251.600 173.000 C 251.050 173.314,250.780 173.572,251.000 173.572 C 251.220 173.572,251.850 173.314,252.400 173.000 C 252.950 172.686,253.220 172.428,253.000 172.428 C 252.780 172.428,252.150 172.686,251.600 173.000 M290.486 174.200 C 290.481 174.640,290.708 175.900,290.991 177.000 C 291.274 178.100,291.509 178.640,291.514 178.200 C 291.519 177.760,291.292 176.500,291.009 175.400 C 290.726 174.300,290.491 173.760,290.486 174.200 M300.460 174.400 C 300.447 174.950,300.687 176.570,300.991 178.000 L 301.545 180.600 301.334 178.356 C 301.066 175.519,300.492 172.924,300.460 174.400 M18.839 175.992 C 18.598 177.118,18.418 178.346,18.440 178.720 C 18.462 179.094,18.733 178.246,19.041 176.835 C 19.350 175.424,19.529 174.196,19.440 174.107 C 19.351 174.018,19.081 174.866,18.839 175.992 M246.723 176.300 C 246.018 177.121,245.490 178.000,245.701 178.000 C 245.783 178.000,246.249 177.460,246.737 176.800 C 247.701 175.496,247.692 175.172,246.723 176.300 M242.657 179.084 C 242.777 180.450,243.130 182.340,243.443 183.284 L 244.010 185.000 243.745 183.400 C 243.600 182.520,243.246 180.630,242.960 179.200 L 242.439 176.600 242.657 179.084 M266.678 178.595 C 267.044 179.362,267.414 179.919,267.501 179.832 C 267.684 179.649,266.470 177.200,266.196 177.200 C 266.095 177.200,266.312 177.828,266.678 178.595 M268.662 184.200 C 268.796 185.080,268.972 185.875,269.053 185.967 C 269.356 186.310,269.129 184.168,268.781 183.400 C 268.529 182.842,268.493 183.085,268.662 184.200 M17.059 188.100 C 16.732 190.822,16.780 201.674,17.130 204.000 C 17.278 204.990,17.400 201.345,17.400 195.900 C 17.400 184.923,17.411 185.172,17.059 188.100 M292.550 191.400 C 292.551 193.820,292.616 194.758,292.696 193.485 C 292.776 192.212,292.775 190.232,292.694 189.085 C 292.614 187.938,292.549 188.980,292.550 191.400 M302.706 194.600 C 302.818 197.680,302.975 200.275,303.055 200.367 C 303.311 200.661,303.124 193.885,302.808 191.400 C 302.621 189.931,302.582 191.172,302.706 194.600 M246.014 197.121 C 245.989 198.031,247.269 203.265,247.468 203.066 C 247.573 202.961,247.472 202.183,247.245 201.338 C 246.872 199.950,246.889 199.876,247.416 200.576 C 247.737 201.004,247.990 201.184,247.977 200.976 C 247.937 200.322,246.029 196.575,246.014 197.121 M268.849 199.000 C 268.816 199.440,268.696 200.250,268.583 200.800 L 268.377 201.800 268.806 200.819 C 269.042 200.279,269.161 199.469,269.072 199.019 C 268.913 198.221,268.907 198.221,268.849 199.000 M303.372 210.400 C 303.372 215.570,303.429 217.685,303.499 215.100 C 303.568 212.515,303.568 208.285,303.499 205.700 C 303.429 203.115,303.372 205.230,303.372 210.400 M248.587 202.775 C 248.921 203.421,249.376 204.061,249.598 204.199 C 249.820 204.336,249.623 203.807,249.161 203.024 C 248.148 201.307,247.735 201.128,248.587 202.775 M290.836 204.036 C 290.566 204.939,290.435 205.769,290.546 205.879 C 290.657 205.990,290.951 205.324,291.200 204.400 C 291.789 202.211,291.477 201.899,290.836 204.036 M251.583 206.500 C 252.564 207.545,253.419 208.400,253.483 208.400 C 253.784 208.400,253.466 208.041,251.700 206.383 L 249.800 204.600 251.583 206.500 M248.448 206.800 C 248.442 207.130,248.683 207.940,248.986 208.600 C 249.693 210.145,249.703 209.426,249.000 207.600 C 248.703 206.830,248.455 206.470,248.448 206.800 M264.122 208.629 L 263.000 209.658 264.300 208.754 C 265.015 208.257,265.600 207.793,265.600 207.725 C 265.600 207.409,265.158 207.680,264.122 208.629 M288.481 210.209 C 288.002 211.194,287.694 212.000,287.797 212.000 C 288.068 212.000,289.684 208.751,289.503 208.570 C 289.419 208.486,288.959 209.224,288.481 210.209 M259.105 210.283 C 259.602 210.379,260.322 210.375,260.705 210.275 C 261.087 210.175,260.680 210.096,259.800 210.101 C 258.920 210.105,258.607 210.187,259.105 210.283 M250.434 212.200 C 250.434 212.420,250.778 213.230,251.200 214.000 C 251.622 214.770,251.966 215.220,251.966 215.000 C 251.966 214.780,251.622 213.970,251.200 213.200 C 250.778 212.430,250.434 211.980,250.434 212.200 M286.581 213.484 C 286.191 214.081,284.955 215.463,283.835 216.555 C 282.575 217.786,282.271 218.217,283.038 217.688 C 284.521 216.665,288.095 212.400,287.470 212.400 C 287.372 212.400,286.972 212.888,286.581 213.484 M18.440 213.280 C 18.387 214.189,19.234 218.099,19.440 217.893 C 19.529 217.804,19.350 216.576,19.041 215.165 C 18.733 213.754,18.462 212.906,18.440 213.280 M81.400 214.774 C 83.761 215.260,88.155 215.649,86.460 215.222 C 85.723 215.036,83.923 214.786,82.460 214.665 C 80.497 214.503,80.219 214.531,81.400 214.774 M252.587 216.775 C 252.921 217.421,253.376 218.061,253.598 218.199 C 253.820 218.336,253.623 217.807,253.161 217.024 C 252.148 215.307,251.735 215.128,252.587 216.775 M95.700 216.676 C 96.085 216.776,96.715 216.776,97.100 216.676 C 97.485 216.575,97.170 216.493,96.400 216.493 C 95.630 216.493,95.315 216.575,95.700 216.676 M98.033 216.950 C 98.125 217.032,99.280 217.200,100.600 217.323 C 102.178 217.470,102.589 217.435,101.800 217.220 C 100.566 216.885,97.736 216.682,98.033 216.950 M80.663 218.600 C 80.801 219.480,81.065 220.560,81.250 221.000 C 81.464 221.508,81.495 221.215,81.337 220.200 C 81.199 219.320,80.935 218.240,80.750 217.800 C 80.536 217.292,80.505 217.585,80.663 218.600 M112.000 218.769 C 114.890 219.291,118.882 219.630,117.205 219.211 C 116.437 219.019,114.547 218.768,113.005 218.653 C 110.831 218.491,110.605 218.517,112.000 218.769 M254.486 219.571 C 254.801 220.105,255.495 220.802,256.029 221.120 L 257.000 221.698 256.112 220.949 C 255.623 220.537,254.929 219.840,254.568 219.400 C 253.943 218.637,253.939 218.645,254.486 219.571 M277.000 220.829 C 276.120 221.252,275.850 221.486,276.400 221.349 C 277.533 221.067,279.612 220.025,279.000 220.046 C 278.780 220.053,277.880 220.406,277.000 220.829 M127.600 220.769 C 130.490 221.291,134.482 221.630,132.805 221.211 C 132.037 221.019,130.147 220.768,128.605 220.653 C 126.431 220.491,126.205 220.517,127.600 220.769 M302.881 223.040 C 302.837 224.601,302.718 227.301,302.617 229.040 L 302.434 232.200 302.829 229.400 C 303.046 227.860,303.165 225.160,303.093 223.400 L 302.963 220.200 302.881 223.040 M20.644 223.200 C 20.780 223.970,21.054 224.870,21.251 225.200 C 21.677 225.910,21.268 223.837,20.739 222.600 C 20.508 222.060,20.477 222.256,20.644 223.200 M143.200 222.769 C 146.090 223.291,150.082 223.630,148.405 223.211 C 147.637 223.019,145.747 222.768,144.205 222.653 C 142.031 222.491,141.805 222.517,143.200 222.769 M260.083 222.860 C 261.318 223.210,267.818 223.222,269.760 222.877 C 270.654 222.718,268.729 222.600,265.243 222.600 C 261.901 222.600,259.579 222.717,260.083 222.860 M86.600 224.990 C 87.700 225.283,88.960 225.529,89.400 225.536 L 90.200 225.549 89.400 225.230 C 88.960 225.055,87.700 224.809,86.600 224.684 L 84.600 224.456 86.600 224.990 M157.700 224.676 C 158.085 224.776,158.715 224.776,159.100 224.676 C 159.485 224.575,159.170 224.493,158.400 224.493 C 157.630 224.493,157.315 224.575,157.700 224.676 M215.905 226.283 C 216.402 226.379,217.122 226.375,217.505 226.275 C 217.887 226.175,217.480 226.096,216.600 226.101 C 215.720 226.105,215.407 226.187,215.905 226.283 M227.505 226.283 C 228.002 226.379,228.722 226.375,229.105 226.275 C 229.487 226.175,229.080 226.096,228.200 226.101 C 227.320 226.105,227.007 226.187,227.505 226.283 M96.000 226.746 C 97.493 227.238,100.370 227.660,99.400 227.245 C 98.960 227.056,97.790 226.793,96.800 226.659 C 95.616 226.500,95.342 226.529,96.000 226.746 M209.861 226.819 C 208.794 226.998,207.811 227.256,207.676 227.391 C 207.434 227.633,209.471 227.385,212.600 226.791 C 214.887 226.357,212.466 226.382,209.861 226.819 M232.400 226.800 C 235.589 227.456,237.098 227.629,236.165 227.230 C 235.706 227.034,234.266 226.774,232.965 226.652 C 230.756 226.444,230.719 226.454,232.400 226.800 M106.000 228.746 C 107.493 229.238,110.370 229.660,109.400 229.245 C 108.960 229.056,107.790 228.793,106.800 228.659 C 105.616 228.500,105.342 228.529,106.000 228.746 M200.456 228.859 C 199.717 229.072,199.183 229.317,199.270 229.403 C 199.357 229.490,200.321 229.316,201.414 229.016 C 202.506 228.717,203.040 228.472,202.600 228.472 C 202.160 228.472,201.195 228.646,200.456 228.859 M242.000 229.000 C 243.826 229.703,244.545 229.693,243.000 228.986 C 242.340 228.683,241.530 228.442,241.200 228.448 C 240.870 228.455,241.230 228.703,242.000 229.000 M22.426 229.200 C 22.427 229.530,22.699 230.250,23.031 230.800 L 23.633 231.800 23.368 230.800 C 22.984 229.348,22.424 228.397,22.426 229.200 M116.000 230.746 C 117.493 231.238,120.370 231.660,119.400 231.245 C 118.960 231.056,117.790 230.793,116.800 230.659 C 115.616 230.500,115.342 230.529,116.000 230.746 M194.200 231.014 C 193.200 231.496,193.166 231.551,194.000 231.348 C 195.133 231.071,196.407 230.421,195.800 230.430 C 195.580 230.433,194.860 230.696,194.200 231.014 M248.358 231.237 C 249.325 231.666,250.188 231.945,250.275 231.858 C 250.448 231.686,247.365 230.382,246.892 230.428 C 246.731 230.444,247.391 230.808,248.358 231.237 M189.600 232.800 C 188.830 233.222,188.380 233.566,188.600 233.566 C 188.820 233.566,189.630 233.222,190.400 232.800 C 191.170 232.378,191.620 232.034,191.400 232.034 C 191.180 232.034,190.370 232.378,189.600 232.800 M375.288 232.579 C 374.126 232.861,373.061 233.205,372.921 233.345 C 372.535 233.732,373.185 233.648,375.600 233.000 C 378.553 232.207,378.628 232.220,379.205 233.613 C 379.856 235.185,380.137 234.912,379.563 233.265 C 379.065 231.836,378.640 231.768,375.288 232.579 M126.731 232.910 C 127.721 233.193,128.320 233.560,128.131 233.766 C 127.938 233.977,128.023 233.999,128.335 233.819 C 129.118 233.366,128.423 232.893,126.600 232.639 L 125.000 232.416 126.731 232.910 M302.101 235.000 C 302.105 235.880,302.187 236.193,302.283 235.695 C 302.379 235.198,302.375 234.478,302.275 234.095 C 302.175 233.713,302.096 234.120,302.101 235.000 M367.866 234.603 C 366.803 234.895,365.813 235.262,365.666 235.417 C 365.520 235.572,365.760 235.598,366.200 235.473 C 366.640 235.349,367.765 235.050,368.700 234.808 C 369.635 234.567,370.400 234.286,370.400 234.185 C 370.400 233.937,370.125 233.982,367.866 234.603 M24.629 235.200 C 24.776 235.750,25.064 236.470,25.267 236.800 C 25.525 237.217,25.557 237.095,25.371 236.400 C 25.224 235.850,24.936 235.130,24.733 234.800 C 24.475 234.383,24.443 234.505,24.629 235.200 M125.500 235.029 C 124.005 235.840,124.096 236.178,125.600 235.400 C 126.260 235.059,126.800 234.694,126.800 234.590 C 126.800 234.332,126.757 234.347,125.500 235.029 M144.795 235.854 C 142.412 237.431,141.049 238.610,143.000 237.406 C 146.275 235.383,147.615 234.400,147.095 234.400 C 147.037 234.400,146.002 235.054,144.795 235.854 M185.100 235.029 C 183.605 235.840,183.696 236.178,185.200 235.400 C 185.860 235.059,186.400 234.694,186.400 234.590 C 186.400 234.332,186.357 234.347,185.100 235.029 M256.000 234.820 C 257.387 235.761,258.178 236.035,257.200 235.236 C 256.650 234.786,256.020 234.417,255.800 234.415 C 255.580 234.413,255.670 234.596,256.000 234.820 M360.658 236.652 C 359.590 236.980,358.796 237.329,358.894 237.428 C 358.993 237.526,360.137 237.263,361.436 236.843 C 362.736 236.423,363.530 236.074,363.200 236.068 C 362.870 236.061,361.726 236.324,360.658 236.652 M121.900 237.029 C 120.405 237.840,120.496 238.178,122.000 237.400 C 122.660 237.059,123.200 236.694,123.200 236.590 C 123.200 236.332,123.157 236.347,121.900 237.029 M380.667 237.326 C 380.795 237.946,381.150 239.206,381.455 240.126 L 382.010 241.800 381.771 240.213 C 381.639 239.339,381.284 238.079,380.982 237.413 L 380.433 236.200 380.667 237.326 M140.081 238.972 C 138.223 240.285,137.962 240.661,139.531 239.762 C 140.263 239.343,141.050 238.775,141.280 238.500 C 141.871 237.793,141.593 237.902,140.081 238.972 M178.785 239.229 L 177.400 240.458 178.900 239.381 C 180.226 238.430,180.657 238.000,180.285 238.000 C 180.222 238.000,179.547 238.553,178.785 239.229 M353.600 238.810 C 352.074 239.338,351.829 239.500,352.800 239.338 C 354.208 239.105,356.947 238.072,356.200 238.057 C 355.980 238.053,354.810 238.391,353.600 238.810 M26.018 238.451 C 25.980 238.980,27.257 241.676,27.452 241.481 C 27.565 241.368,27.293 240.584,26.847 239.738 C 26.400 238.892,26.027 238.313,26.018 238.451 M118.300 239.029 C 116.805 239.840,116.896 240.178,118.400 239.400 C 119.060 239.059,119.600 238.694,119.600 238.590 C 119.600 238.332,119.557 238.347,118.300 239.029 M215.600 239.153 C 214.830 239.289,217.878 239.400,222.374 239.400 C 226.870 239.400,230.020 239.286,229.374 239.147 C 227.869 238.824,217.440 238.828,215.600 239.153 M206.800 240.693 C 205.370 241.036,204.380 241.377,204.600 241.452 C 204.820 241.526,206.350 241.250,208.000 240.838 C 209.650 240.425,210.640 240.084,210.200 240.079 C 209.760 240.075,208.230 240.351,206.800 240.693 M236.200 240.797 C 237.520 241.232,238.780 241.526,239.000 241.449 C 239.408 241.306,237.169 240.621,235.000 240.225 C 234.340 240.105,234.880 240.362,236.200 240.797 M264.800 240.146 C 264.800 240.256,265.340 240.730,266.000 241.200 C 266.660 241.670,267.200 241.964,267.200 241.854 C 267.200 241.744,266.660 241.270,266.000 240.800 C 265.340 240.330,264.800 240.036,264.800 240.146 M347.066 240.603 C 344.778 241.232,343.988 241.822,346.000 241.400 C 347.464 241.092,350.093 240.063,349.400 240.068 C 349.180 240.070,348.130 240.311,347.066 240.603 M114.700 241.029 C 113.205 241.840,113.296 242.178,114.800 241.400 C 115.460 241.059,116.000 240.694,116.000 240.590 C 116.000 240.332,115.957 240.347,114.700 241.029 M136.744 241.223 C 135.850 242.002,135.846 242.023,136.678 241.620 C 137.160 241.387,137.666 241.017,137.801 240.798 C 138.195 240.162,137.763 240.335,136.744 241.223 M174.546 242.900 C 173.237 244.275,171.756 246.030,171.256 246.800 L 170.346 248.200 171.472 246.800 C 172.091 246.030,173.661 244.275,174.962 242.900 C 176.263 241.525,177.237 240.400,177.127 240.400 C 177.017 240.400,175.856 241.525,174.546 242.900 M297.800 241.015 C 296.223 241.561,296.220 241.565,297.600 241.332 C 299.232 241.057,300.900 240.448,300.000 240.456 C 299.670 240.459,298.680 240.711,297.800 241.015 M199.858 242.652 C 198.790 242.980,198.013 243.346,198.132 243.465 C 198.357 243.691,202.400 242.462,202.400 242.168 C 202.400 241.918,201.997 241.995,199.858 242.652 M242.358 242.808 C 243.325 243.253,244.205 243.528,244.314 243.420 C 244.521 243.212,243.286 242.681,241.600 242.253 C 241.050 242.113,241.391 242.363,242.358 242.808 M267.600 242.146 C 267.600 242.256,268.140 242.730,268.800 243.200 C 269.460 243.670,270.000 243.964,270.000 243.854 C 270.000 243.744,269.460 243.270,268.800 242.800 C 268.140 242.330,267.600 242.036,267.600 242.146 M341.800 242.210 C 341.580 242.291,340.617 242.558,339.660 242.805 C 338.702 243.051,338.008 243.341,338.117 243.450 C 338.334 243.667,342.800 242.448,342.800 242.172 C 342.800 241.977,342.391 241.993,341.800 242.210 M111.100 243.029 C 109.605 243.840,109.696 244.178,111.200 243.400 C 111.860 243.059,112.400 242.694,112.400 242.590 C 112.400 242.332,112.357 242.347,111.100 243.029 M289.264 242.873 C 288.309 243.087,287.608 243.341,287.706 243.439 C 287.912 243.646,292.000 242.815,292.000 242.567 C 292.000 242.339,291.311 242.416,289.264 242.873 M28.018 242.851 C 27.980 243.380,29.257 246.076,29.452 245.881 C 29.565 245.768,29.293 244.984,28.847 244.138 C 28.400 243.292,28.027 242.713,28.018 242.851 M107.800 244.800 C 106.236 245.836,106.792 245.837,108.490 244.801 C 109.211 244.362,109.620 244.004,109.400 244.004 C 109.180 244.005,108.460 244.363,107.800 244.800 M194.900 244.596 C 194.185 244.907,193.600 245.262,193.600 245.386 C 193.600 245.609,196.386 244.547,196.746 244.187 C 197.101 243.832,196.197 244.033,194.900 244.596 M246.000 244.197 C 246.000 244.468,249.249 246.084,249.430 245.903 C 249.514 245.819,248.776 245.359,247.791 244.881 C 246.806 244.402,246.000 244.094,246.000 244.197 M278.600 245.019 L 275.800 245.542 278.331 245.328 C 279.723 245.211,281.343 244.969,281.931 244.792 C 283.582 244.293,281.846 244.411,278.600 245.019 M332.456 244.859 C 331.717 245.072,331.190 245.323,331.285 245.418 C 331.380 245.513,332.254 245.340,333.229 245.035 C 335.218 244.411,334.545 244.258,332.456 244.859 M382.597 250.978 C 382.599 254.717,382.723 257.021,382.877 256.157 C 383.236 254.140,383.234 247.849,382.874 245.821 C 382.716 244.932,382.595 247.182,382.597 250.978 M189.800 247.302 C 183.116 251.355,178.847 257.196,178.480 262.792 L 178.283 265.785 174.535 270.012 C 172.474 272.338,170.506 274.681,170.162 275.220 C 169.818 275.759,170.312 275.300,171.260 274.200 C 172.208 273.100,174.270 270.850,175.843 269.200 L 178.703 266.200 178.891 263.112 C 179.286 256.607,182.943 251.963,192.000 246.464 C 192.770 245.996,193.220 245.612,193.000 245.609 C 192.780 245.607,191.340 246.369,189.800 247.302 M104.300 246.629 C 103.695 246.957,103.200 247.310,103.200 247.413 C 103.200 247.799,103.832 247.557,104.800 246.800 C 105.989 245.870,105.811 245.809,104.300 246.629 M128.100 246.846 C 126.737 247.719,126.295 248.306,127.500 247.643 C 128.418 247.139,129.856 246.027,129.600 246.019 C 129.490 246.016,128.815 246.388,128.100 246.846 M250.156 246.328 C 250.294 246.552,251.171 247.164,252.104 247.688 C 253.037 248.212,254.295 248.967,254.900 249.366 C 255.505 249.765,256.000 249.987,256.000 249.858 C 256.000 249.625,252.618 247.373,250.839 246.421 C 250.324 246.145,250.017 246.104,250.156 246.328 M326.000 246.810 C 324.535 247.317,324.263 247.492,325.186 247.335 C 326.849 247.052,329.650 246.058,328.800 246.053 C 328.470 246.051,327.210 246.391,326.000 246.810 M240.100 247.887 C 240.705 247.978,241.695 247.978,242.300 247.887 C 242.905 247.795,242.410 247.720,241.200 247.720 C 239.990 247.720,239.495 247.795,240.100 247.887 M30.668 248.706 C 30.794 249.205,31.055 249.710,31.248 249.830 C 31.796 250.168,31.662 249.436,31.020 248.576 C 30.460 247.827,30.448 247.832,30.668 248.706 M100.200 248.990 C 99.320 249.532,98.725 249.981,98.877 249.988 C 99.224 250.003,102.000 248.379,102.000 248.160 C 102.000 247.900,101.876 247.957,100.200 248.990 M244.774 248.339 C 245.254 248.673,245.261 248.845,244.818 249.379 C 244.362 249.927,244.383 249.981,244.963 249.759 C 245.765 249.451,245.655 248.336,244.800 248.103 C 244.287 247.963,244.283 247.997,244.774 248.339 M235.670 249.326 C 233.549 251.584,234.756 253.859,237.400 252.586 C 238.572 252.021,238.085 252.036,236.000 252.627 C 234.774 252.975,234.904 250.660,236.182 249.382 C 236.722 248.842,237.023 248.400,236.852 248.400 C 236.680 248.400,236.148 248.817,235.670 249.326 M318.200 249.015 C 316.623 249.561,316.620 249.565,318.000 249.332 C 319.632 249.057,321.300 248.448,320.400 248.456 C 320.070 248.459,319.080 248.711,318.200 249.015 M168.581 250.837 C 168.229 251.518,168.012 252.145,168.099 252.232 C 168.186 252.319,168.556 251.762,168.922 250.995 C 169.744 249.270,169.459 249.138,168.581 250.837 M97.100 250.629 C 95.605 251.440,95.696 251.778,97.200 251.000 C 97.860 250.659,98.400 250.294,98.400 250.190 C 98.400 249.932,98.357 249.947,97.100 250.629 M242.075 250.673 C 241.126 251.009,240.422 251.355,240.510 251.443 C 240.720 251.653,243.291 250.790,243.780 250.345 C 244.255 249.914,244.184 249.927,242.075 250.673 M256.400 250.145 C 256.400 250.251,257.570 251.156,259.000 252.156 C 262.107 254.327,262.487 254.275,259.500 252.087 C 257.035 250.281,256.400 249.883,256.400 250.145 M32.400 252.000 C 32.849 252.880,33.306 253.600,33.416 253.600 C 33.526 253.600,33.249 252.880,32.800 252.000 C 32.351 251.120,31.894 250.400,31.784 250.400 C 31.674 250.400,31.951 251.120,32.400 252.000 M310.800 250.888 C 310.030 251.116,309.583 251.371,309.806 251.454 C 310.029 251.536,311.019 251.351,312.006 251.041 C 312.993 250.732,313.440 250.478,313.000 250.476 C 312.560 250.474,311.570 250.659,310.800 250.888 M93.500 252.629 C 92.005 253.440,92.096 253.778,93.600 253.000 C 94.260 252.659,94.800 252.294,94.800 252.190 C 94.800 251.932,94.757 251.947,93.500 252.629 M303.300 252.848 C 302.585 253.054,302.000 253.303,302.000 253.401 C 302.000 253.623,304.320 253.189,305.400 252.765 L 306.200 252.451 305.400 252.461 C 304.960 252.467,304.015 252.641,303.300 252.848 M166.844 254.844 C 166.598 255.551,166.466 256.200,166.552 256.285 C 166.638 256.371,166.909 255.862,167.156 255.156 C 167.402 254.449,167.534 253.800,167.448 253.715 C 167.362 253.629,167.091 254.138,166.844 254.844 M89.690 254.802 C 88.491 255.533,88.591 258.000,89.821 258.000 C 89.931 258.000,89.744 257.466,89.406 256.812 C 88.804 255.648,88.816 255.612,89.996 255.002 C 90.658 254.660,91.200 254.294,91.200 254.190 C 91.200 253.901,91.101 253.941,89.690 254.802 M263.200 255.169 C 263.970 255.858,265.140 256.708,265.800 257.057 C 267.376 257.890,266.719 257.296,264.000 255.427 C 262.035 254.077,261.950 254.050,263.200 255.169 M115.544 255.223 C 114.650 256.002,114.646 256.023,115.478 255.620 C 115.960 255.387,116.466 255.017,116.601 254.798 C 116.995 254.162,116.563 254.335,115.544 255.223 M295.280 254.795 C 294.007 255.096,293.079 255.608,293.833 255.592 C 294.035 255.588,295.100 255.334,296.200 255.028 C 298.299 254.444,297.556 254.256,295.280 254.795 M34.578 255.875 C 34.917 256.576,35.394 257.272,35.637 257.423 C 36.174 257.755,35.595 256.615,34.610 255.400 C 34.008 254.657,34.006 254.691,34.578 255.875 M285.400 257.010 L 283.400 257.544 285.392 257.313 C 286.488 257.186,287.838 256.944,288.392 256.775 L 289.400 256.469 288.400 256.473 C 287.850 256.475,286.500 256.717,285.400 257.010 M208.100 257.491 C 208.925 257.578,210.275 257.578,211.100 257.491 C 211.925 257.405,211.250 257.334,209.600 257.334 C 207.950 257.334,207.275 257.405,208.100 257.491 M110.293 258.614 C 109.472 259.172,108.800 259.715,108.800 259.820 C 108.800 259.925,109.520 259.535,110.400 258.953 C 111.797 258.028,112.270 257.600,111.893 257.600 C 111.834 257.600,111.114 258.056,110.293 258.614 M203.654 258.943 C 201.612 261.116,202.175 263.645,204.478 262.648 L 205.800 262.076 204.238 262.300 L 202.675 262.525 202.937 261.162 C 203.081 260.413,203.659 259.395,204.222 258.900 C 204.784 258.405,205.086 258.000,204.892 258.000 C 204.698 258.000,204.141 258.424,203.654 258.943 M269.122 258.472 C 270.016 258.830,276.569 258.830,278.590 258.472 C 279.537 258.304,277.807 258.192,274.312 258.195 C 271.085 258.198,268.749 258.322,269.122 258.472 M90.600 259.600 C 90.941 260.260,91.311 260.800,91.421 260.800 C 91.531 260.800,91.341 260.260,91.000 259.600 C 90.659 258.940,90.289 258.400,90.179 258.400 C 90.069 258.400,90.259 258.940,90.600 259.600 M106.900 260.846 C 105.537 261.719,105.095 262.306,106.300 261.643 C 107.218 261.139,108.656 260.027,108.400 260.019 C 108.290 260.016,107.615 260.388,106.900 260.846 M208.600 260.807 C 207.708 261.245,207.442 261.484,208.000 261.347 C 209.169 261.059,211.186 260.035,210.600 260.027 C 210.380 260.023,209.480 260.375,208.600 260.807 M163.143 263.300 C 160.505 266.360,159.847 267.200,160.087 267.200 C 160.189 267.200,161.478 265.760,162.951 264.000 C 164.424 262.240,165.555 260.800,165.464 260.800 C 165.372 260.800,164.328 261.925,163.143 263.300 M380.969 263.057 C 380.597 264.346,380.212 265.670,380.116 266.000 C 380.019 266.330,380.156 266.260,380.421 265.845 C 380.973 264.978,382.051 261.118,381.809 260.876 C 381.720 260.787,381.342 261.768,380.969 263.057 M92.349 262.600 C 92.565 263.040,93.034 263.760,93.393 264.200 L 94.044 265.000 93.651 264.200 C 93.435 263.760,92.966 263.040,92.607 262.600 L 91.956 261.800 92.349 262.600 M40.578 265.475 C 40.917 266.176,41.394 266.872,41.637 267.023 C 42.174 267.355,41.595 266.215,40.610 265.000 C 40.008 264.257,40.006 264.291,40.578 265.475 M379.055 268.255 C 378.676 269.049,378.461 269.794,378.578 269.911 C 378.694 270.027,379.072 269.446,379.418 268.618 C 380.235 266.664,379.949 266.378,379.055 268.255 M42.800 268.800 C 43.270 269.460,43.744 270.000,43.854 270.000 C 43.964 270.000,43.670 269.460,43.200 268.800 C 42.730 268.140,42.256 267.600,42.146 267.600 C 42.036 267.600,42.330 268.140,42.800 268.800 M156.743 271.300 C 156.096 272.222,156.036 272.435,156.537 272.033 C 157.250 271.460,158.187 270.000,157.841 270.000 C 157.739 270.000,157.244 270.585,156.743 271.300 M44.364 271.133 C 44.580 271.536,45.074 272.121,45.463 272.433 C 45.964 272.835,45.904 272.622,45.257 271.700 C 44.269 270.291,43.731 269.949,44.364 271.133 M377.014 272.235 C 376.641 272.804,376.427 273.361,376.539 273.472 C 376.650 273.583,377.029 273.118,377.381 272.437 C 378.159 270.933,377.944 270.815,377.014 272.235 M46.743 274.300 C 47.244 275.015,47.739 275.600,47.841 275.600 C 48.187 275.600,47.250 274.140,46.537 273.567 C 46.036 273.165,46.096 273.378,46.743 274.300 M374.024 276.806 C 372.876 278.349,370.607 280.959,368.982 282.606 C 367.356 284.252,366.184 285.600,366.377 285.600 C 366.936 285.600,372.900 279.062,374.759 276.413 C 377.082 273.100,376.579 273.369,374.024 276.806 M153.302 276.500 C 152.736 277.215,151.940 278.800,152.146 278.800 C 152.242 278.800,152.693 278.170,153.147 277.400 C 153.973 276.001,154.049 275.557,153.302 276.500 M168.095 277.900 C 166.586 279.831,165.238 282.019,166.062 281.200 C 166.897 280.371,169.714 276.400,169.468 276.400 C 169.357 276.400,168.740 277.075,168.095 277.900 M50.736 279.500 C 51.170 280.105,52.184 281.320,52.988 282.200 C 53.796 283.084,53.513 282.592,52.353 281.100 C 50.283 278.435,49.202 277.365,50.736 279.500 M150.600 281.200 C 150.259 281.860,150.069 282.400,150.179 282.400 C 150.289 282.400,150.659 281.860,151.000 281.200 C 151.341 280.540,151.531 280.000,151.421 280.000 C 151.311 280.000,150.941 280.540,150.600 281.200 M164.265 283.500 C 163.040 285.444,161.931 287.600,162.156 287.600 C 162.252 287.600,162.761 286.835,163.286 285.900 C 163.811 284.965,164.567 283.705,164.966 283.100 C 165.365 282.495,165.584 282.000,165.451 282.000 C 165.318 282.000,164.785 282.675,164.265 283.500 M149.072 284.219 C 148.132 286.189,148.264 286.524,149.247 284.662 C 149.693 283.816,149.987 283.054,149.901 282.967 C 149.814 282.881,149.441 283.444,149.072 284.219 M57.066 287.200 C 58.618 289.070,59.988 290.870,60.112 291.200 C 60.286 291.665,60.344 291.675,60.368 291.245 C 60.402 290.661,56.684 285.920,55.143 284.581 C 54.650 284.151,55.515 285.330,57.066 287.200 M362.759 288.132 C 358.163 291.731,357.786 292.044,358.400 291.748 C 359.928 291.013,366.380 285.854,365.549 286.032 C 365.467 286.049,364.212 286.994,362.759 288.132 M146.844 289.644 C 146.598 290.351,146.466 291.000,146.552 291.085 C 146.638 291.171,146.909 290.662,147.156 289.956 C 147.402 289.249,147.534 288.600,147.448 288.515 C 147.362 288.429,147.091 288.938,146.844 289.644 M160.605 290.126 C 159.748 292.176,159.886 292.483,160.847 290.662 C 161.293 289.816,161.557 289.024,161.434 288.901 C 161.311 288.778,160.938 289.329,160.605 290.126 M354.809 293.630 C 351.546 295.635,350.710 296.489,353.511 294.956 C 355.454 293.892,358.069 292.023,357.600 292.033 C 357.490 292.036,356.234 292.754,354.809 293.630 M58.672 294.219 C 57.732 296.189,57.864 296.524,58.847 294.662 C 59.293 293.816,59.587 293.054,59.501 292.967 C 59.414 292.881,59.041 293.444,58.672 294.219 M158.656 295.173 C 158.295 296.368,158.016 297.628,158.036 297.973 C 158.057 298.318,158.414 297.520,158.831 296.200 C 159.248 294.880,159.526 293.620,159.450 293.400 C 159.374 293.180,159.017 293.978,158.656 295.173 M144.930 296.663 C 144.461 299.416,144.615 307.212,145.162 308.400 L 145.623 309.400 145.414 308.400 C 144.866 305.773,144.744 300.733,145.163 298.045 C 145.417 296.420,145.542 295.009,145.442 294.909 C 145.342 294.809,145.112 295.598,144.930 296.663 M347.116 297.914 C 345.200 298.932,343.697 299.830,343.775 299.908 C 343.917 300.051,349.671 297.197,350.800 296.423 C 352.248 295.431,350.316 296.213,347.116 297.914 M57.045 298.043 C 56.949 298.349,56.675 299.212,56.435 299.960 C 55.696 302.269,56.013 302.327,56.828 300.032 C 57.251 298.840,57.512 297.779,57.408 297.675 C 57.304 297.571,57.140 297.736,57.045 298.043 M157.701 300.600 C 157.705 301.480,157.787 301.793,157.883 301.295 C 157.979 300.798,157.975 300.078,157.875 299.695 C 157.775 299.313,157.696 299.720,157.701 300.600 M340.842 300.837 C 339.875 301.266,339.182 301.715,339.303 301.836 C 339.423 301.956,340.394 301.601,341.461 301.046 C 343.750 299.855,343.355 299.721,340.842 300.837 M157.701 303.800 C 157.705 304.680,157.787 304.993,157.883 304.495 C 157.979 303.998,157.975 303.278,157.875 302.895 C 157.775 302.513,157.696 302.920,157.701 303.800 M335.400 303.207 C 334.508 303.645,334.242 303.884,334.800 303.747 C 335.969 303.459,337.986 302.435,337.400 302.427 C 337.180 302.423,336.280 302.775,335.400 303.207 M330.600 305.027 C 329.280 305.569,328.740 305.906,329.400 305.776 C 330.701 305.519,334.054 304.076,333.400 304.054 C 333.180 304.047,331.920 304.485,330.600 305.027 M55.057 305.315 C 54.925 305.839,54.736 307.603,54.636 309.234 C 54.536 310.865,54.535 311.660,54.633 311.000 C 54.732 310.340,54.999 308.654,55.226 307.253 C 55.634 304.741,55.522 303.462,55.057 305.315 M158.032 305.913 C 157.984 306.679,159.050 309.060,159.589 309.393 C 159.847 309.553,159.711 308.990,159.285 308.142 C 158.859 307.294,158.410 306.330,158.287 306.000 C 158.141 305.610,158.052 305.579,158.032 305.913 M324.258 307.052 C 323.190 307.380,322.394 307.727,322.490 307.823 C 322.697 308.030,326.800 306.851,326.800 306.585 C 326.800 306.317,326.427 306.386,324.258 307.052 M317.200 309.217 C 315.990 309.639,315.540 309.888,316.200 309.770 C 318.130 309.425,320.400 308.784,320.400 308.585 C 320.400 308.248,319.424 308.440,317.200 309.217 M161.000 311.165 C 162.138 312.405,164.400 314.227,164.400 313.904 C 164.400 313.821,163.365 312.876,162.100 311.805 C 160.623 310.554,160.229 310.325,161.000 311.165 M309.481 311.087 C 308.206 311.422,307.238 311.771,307.331 311.864 C 307.531 312.064,313.200 310.812,313.200 310.568 C 313.200 310.275,311.873 310.460,309.481 311.087 M146.409 312.113 C 146.393 312.664,148.289 316.178,149.058 317.023 C 149.466 317.471,149.650 317.613,149.466 317.337 C 149.283 317.062,148.522 315.704,147.775 314.319 C 147.029 312.933,146.414 311.941,146.409 312.113 M300.848 313.017 C 299.444 313.322,298.191 313.676,298.063 313.804 C 297.755 314.112,300.932 313.595,303.200 312.969 C 305.634 312.296,304.017 312.330,300.848 313.017 M164.800 314.184 C 164.800 314.294,165.520 314.751,166.400 315.200 C 167.280 315.649,168.000 315.926,168.000 315.816 C 168.000 315.706,167.280 315.249,166.400 314.800 C 165.520 314.351,164.800 314.074,164.800 314.184 M289.600 315.209 C 286.564 315.864,286.449 315.919,288.532 315.721 C 291.198 315.468,295.508 314.492,294.000 314.482 C 293.450 314.479,291.470 314.806,289.600 315.209 M168.444 316.147 C 168.803 316.550,173.263 318.070,173.473 317.861 C 173.571 317.762,172.695 317.367,171.526 316.982 C 170.357 316.598,169.130 316.191,168.800 316.078 C 168.470 315.965,168.310 315.996,168.444 316.147 M280.000 316.611 C 279.670 316.677,277.815 316.946,275.878 317.210 C 273.941 317.474,272.437 317.771,272.537 317.870 C 272.749 318.082,282.475 316.858,282.748 316.585 C 282.943 316.390,281.025 316.409,280.000 316.611 M54.606 320.264 C 54.712 321.838,54.968 323.548,55.174 324.064 C 55.693 325.358,55.658 324.739,54.989 320.800 L 54.412 317.400 54.606 320.264 M174.000 318.125 C 174.000 318.422,181.579 320.154,181.821 319.912 C 181.928 319.806,180.610 319.415,178.893 319.044 C 177.177 318.674,175.373 318.266,174.886 318.138 C 174.399 318.011,174.000 318.005,174.000 318.125 M268.705 318.283 C 269.202 318.379,269.922 318.375,270.305 318.275 C 270.687 318.175,270.280 318.096,269.400 318.101 C 268.520 318.105,268.207 318.187,268.705 318.283 M151.400 319.944 C 152.280 320.892,153.720 322.223,154.600 322.903 C 156.465 324.342,155.983 323.833,152.400 320.580 C 150.540 318.892,150.256 318.711,151.400 319.944 M263.200 318.616 C 262.870 318.683,260.084 318.964,257.008 319.239 C 253.933 319.514,251.640 319.813,251.912 319.904 C 252.489 320.096,266.888 318.845,267.154 318.579 C 267.348 318.385,264.182 318.415,263.200 318.616 M246.100 320.287 C 246.705 320.378,247.695 320.378,248.300 320.287 C 248.905 320.195,248.410 320.120,247.200 320.120 C 245.990 320.120,245.495 320.195,246.100 320.287 M187.400 320.795 C 192.477 321.957,228.673 321.965,240.000 320.807 C 242.812 320.519,242.363 320.491,237.400 320.645 C 205.970 321.618,201.101 321.615,188.200 320.615 C 186.079 320.451,185.986 320.472,187.400 320.795 M159.600 326.196 C 159.600 326.470,162.049 327.684,162.232 327.501 C 162.319 327.414,161.762 327.044,160.995 326.678 C 160.228 326.312,159.600 326.095,159.600 326.196 M56.428 328.092 C 56.382 328.565,57.686 331.648,57.858 331.475 C 57.945 331.388,57.666 330.525,57.237 329.558 C 56.808 328.591,56.444 327.931,56.428 328.092 M164.800 328.733 C 165.130 328.936,165.850 329.224,166.400 329.371 C 167.095 329.557,167.217 329.525,166.800 329.267 C 166.470 329.064,165.750 328.776,165.200 328.629 C 164.505 328.443,164.383 328.475,164.800 328.733 M277.478 330.823 C 277.302 331.498,277.365 331.561,277.831 331.174 C 278.468 330.646,278.586 330.000,278.047 330.000 C 277.852 330.000,277.596 330.370,277.478 330.823 M170.600 330.746 C 171.040 330.939,172.030 331.210,172.800 331.350 C 173.761 331.524,173.949 331.494,173.400 331.254 C 172.960 331.061,171.970 330.790,171.200 330.650 C 170.239 330.476,170.051 330.506,170.600 330.746 M274.500 330.676 C 274.885 330.776,275.515 330.776,275.900 330.676 C 276.285 330.575,275.970 330.493,275.200 330.493 C 274.430 330.493,274.115 330.575,274.500 330.676 M269.000 331.221 C 268.243 331.427,268.834 331.465,270.600 331.325 C 272.140 331.202,273.475 331.034,273.567 330.951 C 273.873 330.674,270.216 330.890,269.000 331.221 M275.200 332.849 C 273.806 334.071,273.805 334.072,275.088 333.219 C 275.796 332.748,276.482 332.191,276.612 331.981 C 276.997 331.357,276.677 331.554,275.200 332.849 M58.800 333.600 C 59.249 334.480,59.706 335.200,59.816 335.200 C 59.926 335.200,59.649 334.480,59.200 333.600 C 58.751 332.720,58.294 332.000,58.184 332.000 C 58.074 332.000,58.351 332.720,58.800 333.600 M259.700 332.276 C 260.085 332.376,260.715 332.376,261.100 332.276 C 261.485 332.175,261.170 332.093,260.400 332.093 C 259.630 332.093,259.315 332.175,259.700 332.276 M180.800 333.009 C 182.230 333.313,183.760 333.556,184.200 333.547 C 185.628 333.519,183.170 332.932,180.581 332.683 L 178.200 332.455 180.800 333.009 M254.500 332.687 C 255.105 332.778,256.095 332.778,256.700 332.687 C 257.305 332.595,256.810 332.520,255.600 332.520 C 254.390 332.520,253.895 332.595,254.500 332.687 M246.200 333.207 C 245.100 333.359,246.180 333.398,248.600 333.292 C 251.020 333.187,253.075 333.033,253.167 332.950 C 253.427 332.715,248.422 332.900,246.200 333.207 M186.900 333.876 C 187.285 333.976,187.915 333.976,188.300 333.876 C 188.685 333.775,188.370 333.693,187.600 333.693 C 186.830 333.693,186.515 333.775,186.900 333.876 M237.300 333.887 C 237.905 333.978,238.895 333.978,239.500 333.887 C 240.105 333.795,239.610 333.720,238.400 333.720 C 237.190 333.720,236.695 333.795,237.300 333.887 M191.900 334.282 C 192.395 334.378,193.205 334.378,193.700 334.282 C 194.195 334.187,193.790 334.109,192.800 334.109 C 191.810 334.109,191.405 334.187,191.900 334.282 M226.112 334.295 C 227.164 334.377,228.784 334.376,229.712 334.292 C 230.640 334.208,229.780 334.141,227.800 334.142 C 225.820 334.143,225.060 334.212,226.112 334.295 M202.924 334.699 C 205.962 334.767,210.822 334.767,213.724 334.699 C 216.626 334.631,214.140 334.575,208.200 334.575 C 202.260 334.575,199.886 334.631,202.924 334.699 M60.318 336.200 C 60.547 336.640,61.417 337.630,62.250 338.400 L 63.766 339.800 62.227 338.000 C 60.121 335.538,59.832 335.265,60.318 336.200 M270.200 336.635 L 269.000 337.666 270.300 336.806 C 271.015 336.333,271.600 335.868,271.600 335.773 C 271.600 335.473,271.431 335.578,270.200 336.635 M264.843 340.194 C 260.658 343.118,260.995 343.207,265.300 340.315 C 267.248 339.007,267.965 338.384,267.500 338.404 C 267.445 338.407,266.250 339.212,264.843 340.194 M64.400 340.146 C 64.400 340.256,64.940 340.730,65.600 341.200 C 66.260 341.670,66.800 341.964,66.800 341.854 C 66.800 341.744,66.260 341.270,65.600 340.800 C 64.940 340.330,64.400 340.036,64.400 340.146 M260.100 343.246 C 258.737 344.119,258.295 344.706,259.500 344.043 C 260.418 343.539,261.856 342.427,261.600 342.419 C 261.490 342.416,260.815 342.788,260.100 343.246 M254.300 346.629 C 252.805 347.440,252.896 347.778,254.400 347.000 C 255.060 346.659,255.600 346.294,255.600 346.190 C 255.600 345.932,255.557 345.947,254.300 346.629 M74.400 346.579 C 74.400 346.689,74.940 347.059,75.600 347.400 C 76.260 347.741,76.800 347.931,76.800 347.821 C 76.800 347.711,76.260 347.341,75.600 347.000 C 74.940 346.659,74.400 346.469,74.400 346.579 M250.300 348.827 C 249.475 349.263,248.800 349.708,248.800 349.818 C 248.800 349.927,249.520 349.649,250.400 349.200 C 251.280 348.751,252.000 348.297,252.000 348.192 C 252.000 347.930,251.997 347.931,250.300 348.827 M82.538 350.847 C 83.384 351.293,84.168 351.565,84.281 351.452 C 84.476 351.257,81.780 349.980,81.251 350.018 C 81.113 350.027,81.692 350.400,82.538 350.847 M86.400 352.566 C 86.950 352.860,87.850 353.212,88.400 353.349 C 88.950 353.486,88.680 353.252,87.800 352.829 C 85.990 351.958,84.868 351.748,86.400 352.566 M242.400 352.800 C 241.630 353.222,241.180 353.566,241.400 353.566 C 241.620 353.566,242.430 353.222,243.200 352.800 C 243.970 352.378,244.420 352.034,244.200 352.034 C 243.980 352.034,243.170 352.378,242.400 352.800 M237.400 354.991 C 236.300 355.509,235.580 355.937,235.800 355.942 C 236.020 355.947,237.100 355.527,238.200 355.009 C 239.300 354.491,240.020 354.063,239.800 354.058 C 239.580 354.053,238.500 354.473,237.400 354.991 M92.400 354.969 C 93.514 355.641,94.391 355.816,93.780 355.245 C 93.571 355.050,92.950 354.772,92.400 354.628 L 91.400 354.367 92.400 354.969 M233.000 356.829 C 232.120 357.252,231.850 357.486,232.400 357.349 C 233.533 357.067,235.612 356.025,235.000 356.046 C 234.780 356.053,233.880 356.406,233.000 356.829 M97.200 356.733 C 97.530 356.936,98.250 357.224,98.800 357.371 C 99.495 357.557,99.617 357.525,99.200 357.267 C 98.870 357.064,98.150 356.776,97.600 356.629 C 96.905 356.443,96.783 356.475,97.200 356.733 M227.675 358.673 C 226.726 359.009,226.021 359.354,226.107 359.441 C 226.290 359.623,230.000 358.405,230.000 358.162 C 230.000 357.912,229.545 358.012,227.675 358.673 M103.200 358.741 C 103.530 358.934,104.340 359.209,105.000 359.352 C 105.768 359.518,105.984 359.484,105.600 359.259 C 105.270 359.066,104.460 358.791,103.800 358.648 C 103.032 358.482,102.816 358.516,103.200 358.741 M109.800 360.746 C 110.240 360.939,111.230 361.210,112.000 361.350 C 112.961 361.524,113.149 361.494,112.600 361.254 C 112.160 361.061,111.170 360.790,110.400 360.650 C 109.439 360.476,109.251 360.506,109.800 360.746 M220.800 361.000 C 220.030 361.297,219.670 361.539,220.000 361.539 C 220.330 361.539,221.230 361.297,222.000 361.000 C 222.770 360.703,223.130 360.461,222.800 360.461 C 222.470 360.461,221.570 360.703,220.800 361.000 M117.400 362.768 C 117.840 362.943,118.920 363.191,119.800 363.319 L 121.400 363.552 119.800 363.007 C 118.920 362.707,117.840 362.459,117.400 362.456 L 116.600 362.451 117.400 362.768 M213.800 363.015 C 212.223 363.561,212.220 363.565,213.600 363.332 C 215.232 363.057,216.900 362.448,216.000 362.456 C 215.670 362.459,214.680 362.711,213.800 363.015 M127.400 364.990 C 128.500 365.283,129.760 365.529,130.200 365.536 L 131.000 365.549 130.200 365.230 C 129.760 365.055,128.500 364.809,127.400 364.684 L 125.400 364.456 127.400 364.990 M205.000 364.991 C 203.900 365.274,203.360 365.509,203.800 365.514 C 204.240 365.519,205.500 365.292,206.600 365.009 C 207.700 364.726,208.240 364.491,207.800 364.486 C 207.360 364.481,206.100 364.708,205.000 364.991 M139.600 367.000 C 141.250 367.302,143.140 367.541,143.800 367.531 C 145.532 367.504,142.613 366.957,139.200 366.670 L 136.600 366.450 139.600 367.000 M193.409 366.846 C 190.153 367.320,189.655 367.640,192.600 367.366 C 195.383 367.107,198.400 366.477,196.800 366.490 C 196.250 366.494,194.724 366.654,193.409 366.846 M146.500 367.876 C 146.885 367.976,147.515 367.976,147.900 367.876 C 148.285 367.775,147.970 367.693,147.200 367.693 C 146.430 367.693,146.115 367.775,146.500 367.876 M151.500 368.282 C 151.995 368.378,152.805 368.378,153.300 368.282 C 153.795 368.187,153.390 368.109,152.400 368.109 C 151.410 368.109,151.005 368.187,151.500 368.282 M181.900 368.282 C 182.395 368.378,183.205 368.378,183.700 368.282 C 184.195 368.187,183.790 368.109,182.800 368.109 C 181.810 368.109,181.405 368.187,181.900 368.282 M161.650 368.828 C 164.868 368.975,170.268 368.974,173.650 368.827 C 178.719 368.607,177.690 368.560,167.800 368.561 C 158.210 368.562,156.975 368.615,161.650 368.828 " stroke="none" fill="#95650c" fill-rule="evenodd"></path></g></svg>